<?xml version="1.0" encoding="utf-8"?>
<!-- Generator: Adobe Illustrator 16.0.0, SVG Export Plug-In . SVG Version: 6.00 Build 0)  -->
<!DOCTYPE svg PUBLIC "-//W3C//DTD SVG 1.1//EN" "http://www.w3.org/Graphics/SVG/1.1/DTD/svg11.dtd">
<svg version="1.1" id="Layer_1" xmlns="http://www.w3.org/2000/svg" xmlns:xlink="http://www.w3.org/1999/xlink" x="0px" y="0px"
	 width="566.929px" height="566.929px" viewBox="0 0 566.929 566.929" enable-background="new 0 0 566.929 566.929"
	 xml:space="preserve">
<g>
	<g>
		
			<ellipse fill="#FFFFFF" stroke="#000000" stroke-width="2" stroke-miterlimit="10" cx="281.244" cy="276.303" rx="146.633" ry="119.939"/>
		<g>
			<path fill="#FFFFFF" d="M394.582,273.15c-2.393-5.074-5.426-8.42-8.484-10.633l0.035,0.014
				c7.383-6.391,11.994-17.131,11.623-27.988c-0.621-18.082-13.609-32.395-28.885-31.842c-12.275,0.42-17.447,10.781-17.201,18.002
				c0.266,7.777,4.326,10.604,7.357,12.053c2.105,1.01,6.188,1.271,9.912-0.166c0.893-0.346,1.922-0.865,2.877-1.611
				c-0.02,0.016-0.029,0.031-0.051,0.049c1.436,1.145,7.586,6.395,8.596,13.385c0.65,4.512-1.16,9.615-4.477,14.035l0.02,0.01
				c-5.357-0.703-10.865,0.514-14.553,3.32c-4.646,3.537-7.537,9.643-7.027,14.85c0.254,2.582,1.475,6.113,5.846,8.254
				c4.35,2.129,8.035,1.607,10.779,0.383c0.061-0.072,0.145-0.125,0.246-0.113c0.004,0,0.004,0,0.004,0l0.305-0.211
				c-0.154,9.602-4.637,20.771-23.229,25.217c-3.693,0.883-7.154,1.227-10.313,1.227c-11.662,0-19.236-4.727-19.33-4.787
				c-0.014-0.01-0.014-0.027-0.025-0.035c-0.328,3.891-1.516,7.539-3.365,10.773c0.012,0.006,0.023,0,0.037,0.006
				c8.42,5.303,18.809,8.316,29.213,8.785c-0.178,0.156-0.336,0.32-0.504,0.475l0,0c-2.693,2.537-4.127,5.654-4.018,8.863
				c0.131,3.781,1.924,7.34,4.795,9.523c1.225,0.93,2.994,1.848,5.326,2.229l-0.109,0.006c-3.17,4.422-9.801,8.828-19.033,8.828
				c-3.178,0-6.707-0.451-10.58-1.486c-14.998-4.012-23.59-23.77-23.676-23.965c-0.063-0.145,0.004-0.301,0.129-0.385
				c-1.143,0.193-2.303,0.34-3.494,0.381c-4.266,0.148-8.32-0.754-11.945-2.438c0.737,3.201,10.609,42.762,45.787,44.934
				c19.83,1.223,31.242-5.574,37.322-11.494c5.939-5.783,9.344-13.4,9.104-20.387c-0.217-6.414-2.303-11.615-6.025-15.035
				c-1.078-0.99-2.287-1.807-3.582-2.463c0.186,0.076,0.367,0.17,0.553,0.281c4.041-1.053,8.783-2.803,12.377-4.414
				c0.018-0.006,0.033,0.004,0.051,0c-0.549-1.541-0.881-3.189-0.938-4.912c-0.309-8.959,6.703-16.471,15.662-16.779
				c1.316-0.047,2.594,0.086,3.826,0.34c-0.006-0.049-0.025-0.094-0.008-0.145C398.465,289.346,398.139,280.723,394.582,273.15z"/>
			<path fill="#FFFFFF" d="M271.842,320.629c-0.826,1.275-12.975,19.463-31.91,19.463c-5.526,0-11.635-1.561-18.205-5.535
				l-0.38-0.52c0.092-0.152,0.303-0.273,0.459-0.182c0.008,0.006,0.014,0.012,0.022,0.016c1.858-0.678,4.221-2.066,5.91-5.02
				c0.992-1.736,1.421-3.398,1.487-4.945c-0.003,0.029,0,0.061-0.003,0.09c14.92,0.48,29.487-3.492,38.361-10.742
				c0.028-0.027,0.072-0.02,0.106-0.031c-0.533-1.488-1.078-3.877-1.34-5.479l-0.377,0.465c0.089-0.156,0.221-0.547,0.377-0.465
				c-0.118-0.832-0.133-1.34-0.176-2.195c-0.551,0.162-4.386,1.248-9.157,1.248c-3.556,0-7.634-0.605-11.249-2.646
				c-4.544-2.561-7.999-7.805-9.316-13.605c-0.072-0.012-0.129-0.031-0.202-0.043c0.856,0.172,1.804,0.26,2.875,0.223
				c1.093-0.039,2.063-0.184,2.922-0.406c0.009-0.012,0.006-0.029,0.015-0.039c0.086-0.088,0.202-0.094,0.311-0.068
				c0.041-0.01,0.072-0.025,0.112-0.041c6.233,5.746,14.54,10.209,23.643,12.152c0.034,0.008,0.05,0.039,0.081,0.057
				c0.139-1.91,0.495-3.758,1.023-5.535c-0.023-0.006-0.047-0.008-0.064-0.018c-14.355-6.76-11.183-26.355-9.973-30.07
				c0.058-0.162,0.219-0.256,0.387-0.213c0.176,0.045,0.276,0.225,0.23,0.396c-0.006,0.01-0.023,0.082-0.05,0.186
				c0.657,0.436,1.386,0.824,2.269,1.117c4.549,1.52,9.283,1.008,12.992-1.4c3.575-2.326,5.783-6.105,6.219-10.641
				c0.561-5.889-1.303-14.416-6.743-20.197c-3.985-4.242-9.172-6.281-15.405-6.064c-7.143,0.242-16.988,3.141-23.201,10.539
				c0.438-0.518,0.666-0.783,1.138-1.262c-3.643-9.137-4.057-17.488-0.695-23.537c4.657-8.385,15.315-10.982,17.003-11.34
				c-0.002-0.197,0.012-0.375,0.015-0.564c-0.009,0.313-0.017,0.627-0.006,0.959c0.233,6.777,7.126,9.006,11.653,8.846
				c2.049-0.066,5.123-0.973,7.602-3.299c2.904-2.725,4.351-6.801,4.178-11.791c-0.202-5.879-2.392-10.383-6.51-13.385
				c-4.365-3.184-10.854-4.648-19.291-4.363c-17.825,0.611-31.863,15.426-34.143,36.025c-2.407,21.766,7.428,38.275,13.658,44.795
				c-0.015-0.152-0.017-0.299-0.034-0.455c0.032,0.246,0.038,0.479,0.072,0.725c0.207,1.473,0.47,2.938,0.78,4.355
				c0.009,0.035-0.014,0.059-0.014,0.09c0.152-0.025,0.313-0.041,0.469-0.064c-12.094,1.865-16.182,12.486-15.863,21.82
				c0.116,3.334,1.441,7.617,3.905,11.783c-0.006-0.01-0.012-0.02-0.018-0.031c-21.965-8.148-23.639-28.887-23.196-32.352
				c-0.216,0.1-0.449,0.178-0.674,0.268c5.002-2.102,7.728-6.82,7.5-13.426c-0.346-10.125-8.045-16.412-19.634-16.018
				c-5.25,0.182-10.414,3.355-13.809,8.498c-3.36,5.08-7.892,16.438-0.553,35.43c6.754,17.479,17.614,29.049,33.14,35.535
				c0.069-0.076,0.153-0.156,0.228-0.232c-3.311,3.402-5.267,8.4-5.313,13.803c-0.04,4.889,1.455,14.33,11.947,22.709
				c9.091,7.256,26.057,8.602,41.268,3.266c0.056-0.018,0.107,0,0.159,0.012c0.972-7.771,7.448-13.914,15.528-14.191
				c1.959-0.066,3.844,0.232,5.607,0.813c0.014-0.051,0.018-0.107,0.057-0.148c4.432-4.555,8.023-9.896,10.674-15.875
				c0-0.004,0.002-0.004,0.006-0.006C277.256,326.137,274.236,323.646,271.842,320.629z M229.23,323.646
				c0.043-2.559-0.905-4.793-1.959-6.529C228.583,318.838,229.326,321.025,229.23,323.646z"/>
			<path fill="#FFFFFF" d="M305.365,246.092c3.709-1.072,6.529-3.83,8.309-8.014c0.039-0.098,0.082-0.238,0.469-0.352
				c17.564,21.059-2.113,48.484-2.318,48.758c-0.016,0.021-0.045,0.016-0.066,0.035c2.141,2.32,3.859,5.033,5.057,8.021
				c0.004,0,0.004-0.006,0.006-0.006c0.275-0.123,27.373-12.629,26.35-42.43c-0.961-27.918-15.121-39.064-21.166-42.561
				c-0.191-0.107-19.197-10.404-32.344,6.861c-8.107,10.654-3.914,21.428,0.877,26.07
				C293.148,244.996,299.477,247.789,305.365,246.092z"/>
		</g>
		<path fill="#FFFFFF" d="M318.707,303.453c0.498,14.518-10.865,26.686-25.379,27.186c-14.514,0.494-26.682-10.865-27.18-25.379
			c-0.499-14.516,10.863-26.684,25.377-27.184C306.039,277.578,318.211,288.939,318.707,303.453z"/>
		<path fill="#FFFFFF" d="M408.473,313.594c0.309,8.961-6.709,16.473-15.664,16.781c-8.961,0.309-16.471-6.709-16.777-15.666
			c-0.309-8.959,6.703-16.471,15.662-16.779C400.652,297.625,408.164,304.635,408.473,313.594z"/>
		<path fill="#FFFFFF" d="M281.163,358.791c0.306,8.961-6.708,16.471-15.663,16.779c-8.962,0.309-16.471-6.705-16.779-15.666
			c-0.309-8.959,6.705-16.469,15.664-16.777S280.855,349.834,281.163,358.791z"/>
		<path fill="#FFFFFF" d="M181.145,314.365c0.254,7.375-5.521,13.561-12.897,13.814c-7.376,0.25-13.561-5.521-13.814-12.896
			c-0.253-7.377,5.521-13.561,12.897-13.814C174.705,301.215,180.888,306.988,181.145,314.365z"/>
		<path fill="#FFFFFF" d="M206.412,212.359c0.253,7.377-5.521,13.563-12.897,13.813c-7.376,0.256-13.56-5.52-13.811-12.895
			c-0.253-7.375,5.518-13.561,12.895-13.814C199.975,199.211,206.159,204.984,206.412,212.359z"/>
		<path fill="#FFFFFF" d="M341.455,188.314c0.254,7.377-5.521,13.561-12.898,13.814c-7.373,0.254-13.559-5.52-13.813-12.896
			c-0.254-7.375,5.521-13.561,12.898-13.814C335.018,175.164,341.205,180.939,341.455,188.314z"/>
	</g>
	<g>
		<path fill="#241A16" d="M292.414,331.479c-14.676,0-26.568-11.498-27.076-26.176c-0.51-14.934,11.224-27.502,26.158-28.018
			c15.125-0.502,27.504,11.168,28.02,26.158c0.514,14.934-11.223,27.506-26.158,28.02
			C293.041,331.473,292.727,331.479,292.414,331.479z M292.441,278.885c-0.293,0-0.594,0.006-0.891,0.016
			c-14.044,0.484-25.078,12.303-24.596,26.346c0.484,14.1,12.117,25.07,26.346,24.602c14.045-0.486,25.08-12.303,24.598-26.348
			C317.426,289.697,306.244,278.885,292.441,278.885z"/>
		<path fill="#241A16" d="M392.238,331.209c-9.225,0-16.701-7.229-17.018-16.453c-0.156-4.551,1.469-8.887,4.576-12.215
			c3.105-3.328,7.322-5.244,11.867-5.4c9.49-0.316,17.289,7.02,17.615,16.443c0.158,4.551-1.469,8.887-4.572,12.213
			c-3.105,3.328-7.322,5.244-11.873,5.4C392.637,331.205,392.438,331.209,392.238,331.209z M392.262,298.746
			c-0.18,0-0.361,0.002-0.541,0.008c-4.115,0.141-7.932,1.879-10.744,4.891c-2.811,3.012-4.281,6.938-4.141,11.055
			c0.295,8.529,7.34,15.191,15.941,14.881c4.117-0.139,7.936-1.875,10.748-4.887s4.281-6.936,4.137-11.055
			C407.379,305.289,400.613,298.746,392.262,298.746z"/>
		<path fill="#241A16" d="M264.93,376.404c-9.224,0-16.701-7.227-17.019-16.453c-0.155-4.551,1.47-8.887,4.575-12.211
			c3.107-3.33,7.322-5.248,11.869-5.404c9.486-0.316,17.292,7.02,17.615,16.445c0.322,9.391-7.057,17.291-16.445,17.611
			C265.327,376.4,265.128,376.404,264.93,376.404z M264.952,343.943c-0.179,0-0.36,0-0.538,0.01
			c-4.119,0.141-7.936,1.875-10.746,4.891c-2.809,3.01-4.281,6.936-4.141,11.053c0.294,8.529,7.363,15.193,15.943,14.883
			c8.498-0.291,15.174-7.439,14.883-15.941C280.068,350.484,273.303,343.943,264.952,343.943z"/>
		<path fill="#241A16" d="M167.781,329.014c-7.674,0-13.895-6.012-14.154-13.686c-0.133-3.783,1.219-7.391,3.804-10.16
			c2.582-2.766,6.089-4.359,9.872-4.488c7.881-0.273,14.381,5.838,14.649,13.676c0.268,7.807-5.867,14.381-13.676,14.648
			C168.109,329.01,167.945,329.014,167.781,329.014z M167.801,302.287c-0.15,0-0.297,0.002-0.444,0.006
			c-3.351,0.115-6.458,1.529-8.745,3.979c-2.291,2.453-3.487,5.648-3.371,9c0.239,6.943,5.987,12.352,12.978,12.119
			c6.918-0.24,12.355-6.063,12.117-12.979C180.102,307.611,174.595,302.287,167.801,302.287z"/>
		<path fill="#241A16" d="M193.045,227.006c-7.673,0-13.888-6.012-14.151-13.686c-0.268-7.807,5.867-14.379,13.676-14.648
			c7.936-0.271,14.384,5.838,14.652,13.676c0.127,3.783-1.221,7.391-3.806,10.158c-2.584,2.768-6.088,4.361-9.872,4.49
			C193.376,227.002,193.212,227.006,193.045,227.006z M193.065,200.279c-0.147,0-0.291,0.002-0.438,0.008
			c-6.918,0.238-12.355,6.061-12.117,12.979c0.236,6.945,5.974,12.354,12.976,12.117c3.354-0.115,6.46-1.529,8.748-3.979
			c2.291-2.453,3.487-5.648,3.372-9.002C205.372,205.605,199.863,200.279,193.065,200.279z"/>
		<path fill="#241A16" d="M328.092,202.963c-7.674,0-13.893-6.012-14.154-13.686c-0.133-3.783,1.223-7.391,3.805-10.156
			c2.58-2.768,6.092-4.363,9.869-4.492c7.904-0.258,14.383,5.84,14.65,13.676c0.133,3.785-1.221,7.391-3.803,10.158
			c-2.582,2.766-6.092,4.361-9.873,4.49C328.42,202.959,328.256,202.963,328.092,202.963z M328.107,176.234
			c-0.146,0-0.293,0.004-0.439,0.01c-3.352,0.115-6.459,1.527-8.746,3.979c-2.287,2.453-3.486,5.648-3.369,9
			c0.236,6.943,5.979,12.363,12.979,12.115c3.354-0.115,6.455-1.527,8.746-3.979c2.289-2.453,3.486-5.648,3.367-9
			C340.412,181.561,334.906,176.234,328.107,176.234z"/>
		<path fill="#241A16" d="M330.945,356.594c-3.217,0-6.787-0.459-10.701-1.504c-15.225-4.068-23.645-23.424-23.996-24.244
			l1.486-0.635c0.084,0.193,8.469,19.453,22.926,23.316c14.707,3.934,24.195-0.771,28.17-6.479l1.324,0.92
			C346.951,352.578,340.49,356.594,330.945,356.594z"/>
		<path fill="#241A16" d="M387.168,263.094l-1.053-1.229c7.357-6.283,11.529-16.471,11.156-27.244
			c-0.609-17.814-13.334-31.879-28.381-31.377c-11.945,0.412-16.977,10.482-16.736,17.502c0.197,5.795,2.383,9.383,7.08,11.633
			c1.969,0.939,5.973,1.193,9.529-0.182c1.781-0.688,4.131-2.066,5.203-4.707l1.498,0.607c-1.021,2.516-3.137,4.455-6.121,5.607
			c-3.545,1.375-8.094,1.428-10.809,0.133c-5.236-2.51-7.779-6.65-7.996-13.037c-0.264-7.689,5.236-18.723,18.293-19.172
			c0.287-0.01,0.57-0.014,0.854-0.014c15.557,0,28.572,14.578,29.203,32.947C399.275,245.828,394.893,256.492,387.168,263.094z"/>
		<path fill="#241A16" d="M376.4,258.662l-1.277-0.992c3.359-4.309,4.744-8.693,4.117-13.035
			c-1.084-7.521-7.857-12.455-7.926-12.506l0.941-1.311c0.301,0.215,7.404,5.391,8.584,13.586
			C381.531,249.199,380.039,253.996,376.4,258.662z"/>
		<path fill="#241A16" d="M337.807,311.955c-11.609,0-19.043-4.643-19.436-4.895l0.871-1.361c0.115,0.074,11.949,7.436,28.771,3.414
			c14.473-3.461,22-11.402,22.365-23.607l1.617,0.049c-0.268,8.955-4.586,20.586-23.609,25.133
			C344.582,311.598,341.031,311.955,337.807,311.955z"/>
		<path fill="#241A16" d="M239.938,340.648c-5.679,0-11.958-1.615-18.727-5.766l0.848-1.379
			c28.941,17.752,48.67-13.174,48.867-13.486l1.371,0.855C272.141,321.127,259.685,340.648,239.938,340.648z"/>
		<path fill="#241A16" d="M331.754,374.424c-1.502,0-3.053-0.047-4.654-0.146c-32.404-2-43.801-34.889-46.309-43.828
			c-2.587,5.275-5.92,10.025-9.929,14.15l-1.159-1.129c4.39-4.514,7.947-9.811,10.576-15.734c0.141-0.32,0.457-0.516,0.824-0.479
			c0.348,0.037,0.633,0.297,0.705,0.639c0.09,0.428,9.293,42.539,45.389,44.768c19.664,1.215,30.945-5.506,36.957-11.355
			c5.842-5.691,9.193-13.176,8.957-20.023c-0.213-6.285-2.242-11.365-5.869-14.693c-3.088-2.838-7.205-4.313-11.654-4.166
			c-3.963,0.135-7.895,1.639-10.781,4.127c-2.916,2.512-4.463,5.693-4.352,8.955c0.127,3.637,1.844,7.057,4.602,9.148
			c2.072,1.572,5.697,3.164,11.195,1.826l0.381,1.572c-6.121,1.482-10.201-0.326-12.553-2.111c-3.141-2.383-5.098-6.264-5.24-10.381
			c-0.127-3.76,1.615-7.395,4.912-10.234c3.162-2.725,7.453-4.369,11.783-4.52c4.844-0.152,9.398,1.465,12.801,4.594
			c3.951,3.627,6.162,9.102,6.391,15.826c0.252,7.297-3.279,15.234-9.443,21.234C359.531,368.063,349.16,374.424,331.754,374.424z"
			/>
		<path fill="#241A16" d="M229.842,361.691c-9.157,0-17.551-2.305-23.115-6.75c-8.054-6.43-12.448-14.813-12.374-23.598
			c0.052-6.596,2.818-12.641,7.395-16.172c9.575-7.381,19.43-4.514,22.706-1.971c2.15,1.67,8.786,7.775,3.962,16.225
			c-4.536,7.934-11.878,5.949-11.947,5.93l0.44-1.557l-0.222,0.777l0.219-0.777c0.253,0.068,6.215,1.631,10.102-5.178
			c4.182-7.316-1.656-12.676-3.549-14.143c-2.833-2.201-11.984-4.764-20.724,1.975c-4.188,3.229-6.717,8.803-6.769,14.904
			c-0.041,4.795,1.435,14.07,11.768,22.324c8.965,7.156,25.743,8.467,40.802,3.186l0.532,1.525
			C242.748,360.611,236.118,361.691,229.842,361.691z"/>
		<path fill="#241A16" d="M312.211,286.834l-1.291-0.969c0.199-0.271,19.889-27.064,2.334-47.479l1.225-1.055
			C332.887,258.736,312.422,286.555,312.211,286.834z"/>
		<path fill="#241A16" d="M317.283,295.625l-0.66-1.475c0.268-0.121,27.074-12.51,26.063-41.967
			c-0.951-27.676-14.953-38.703-20.928-42.158c-0.184-0.107-18.816-10.199-31.715,6.734c-7.912,10.402-3.84,20.904,0.832,25.426
			c2.453,2.373,8.715,5.125,14.354,3.498c4.523-1.303,7.697-5.201,9.184-11.27l1.57,0.383c-2.063,8.422-6.742,11.414-10.307,12.439
			c-6.32,1.826-13.119-1.176-15.926-3.891c-5.082-4.922-9.546-16.326-0.988-27.564c11.578-15.213,28.328-10.324,33.805-7.156
			c6.211,3.592,20.76,15.021,21.736,43.502C345.352,282.689,317.564,295.502,317.283,295.625z"/>
		<path fill="#241A16" d="M343.729,327.234c-10.652-0.461-20.426-3.447-29.053-8.877l0.861-1.369
			c8.385,5.277,17.895,8.184,28.262,8.629L343.729,327.234z"/>
		<path fill="#241A16" d="M365.455,324.826l-0.406-1.564c4.043-1.049,8.08-2.457,11.674-4.066l0.662,1.475
			C373.707,322.316,369.584,323.754,365.455,324.826z"/>
		<path fill="#241A16" d="M396.584,298.504l-1.529-0.516c2.951-8.742,2.643-17.01-0.914-24.574
			c-4.43-9.414-11.115-12.799-15.941-13.984c-5.922-1.447-12.418-0.355-16.555,2.791c-4.52,3.443-7.332,9.371-6.836,14.418
			c0.242,2.461,1.4,5.82,5.576,7.867c9.145,4.48,15.277-3.238,15.533-3.57l1.279,0.986c-0.072,0.09-7.178,9.107-17.525,4.033
			c-4.842-2.371-6.193-6.287-6.475-9.158c-0.545-5.574,2.527-12.098,7.469-15.865c4.51-3.428,11.539-4.631,17.92-3.072
			c5.166,1.27,12.318,4.877,17.018,14.867C399.295,280.568,399.631,289.482,396.584,298.504z"/>
		<path fill="#241A16" d="M266.961,297.322c-16.26-7.652-10.305-30.391-10.241-30.621l1.56,0.424
			c-0.059,0.215-5.66,21.66,9.373,28.736L266.961,297.322z"/>
		<path fill="#241A16" d="M257.04,307.369c-3.613,0-7.769-0.625-11.513-2.736c-4.71-2.656-7.868-7.178-9.378-13.439l1.57-0.377
			c1.404,5.807,4.297,9.98,8.601,12.406c8.402,4.738,19.473,1.318,19.583,1.283l0.489,1.539
			C266.111,306.133,262.111,307.369,257.04,307.369z"/>
		<path fill="#241A16" d="M243.004,316.131c-19.222,0.004-29.884-18.055-30.23-28c-0.363-10.596,4.668-22.104,19.876-22.627
			c6.46-0.221,11.2,1.82,14.173,6.066c2.521,3.6,2.845,7.578,2.885,8.711c0.09,2.639-0.403,11.283-10.549,11.633
			c-9.84,0.344-11.226-8.803-11.238-8.898l1.602-0.217c0.046,0.318,1.184,7.756,9.581,7.498c8.11-0.277,9.112-6.359,8.987-9.959
			c-0.024-0.729-0.264-4.52-2.592-7.84c-2.64-3.768-6.945-5.586-12.797-5.379c-17.638,0.604-18.477,16.193-18.312,20.957
			c0.329,9.563,10.823,27.051,29.624,26.422c17.901-0.613,21.504-6.418,21.54-6.475l1.409,0.793
			c-0.149,0.27-3.894,6.648-22.894,7.299C243.713,316.129,243.355,316.131,243.004,316.131z"/>
		<path fill="#241A16" d="M265.892,303.488c-9.558-2.039-17.684-6.191-24.152-12.342l1.115-1.17
			c6.249,5.939,14.113,9.953,23.374,11.93L265.892,303.488z"/>
		<path fill="#241A16" d="M265.217,270.295c-1.832,0-3.702-0.303-5.546-0.918c-10.028-3.344-6.022-15.805-5.979-15.928l1.533,0.508
			c-0.146,0.449-3.539,11.053,4.962,13.889c4.405,1.469,8.989,0.977,12.569-1.35c3.451-2.244,5.58-5.898,6.004-10.283
			c0.551-5.781-1.279-14.148-6.615-19.82c-3.885-4.131-8.971-6.105-15.033-5.912c-7.039,0.242-16.738,3.094-22.847,10.371
			c-4.659,5.549-6.425,12.605-5.25,20.971c0.205,1.455,0.464,2.91,0.772,4.322l-1.579,0.346c-0.316-1.451-0.584-2.945-0.795-4.443
			c-1.242-8.838,0.645-16.32,5.613-22.236c6.452-7.682,16.644-10.693,24.031-10.947c6.492-0.215,12.107,2,16.27,6.424
			c5.68,6.037,7.63,14.938,7.042,21.08c-0.47,4.885-2.858,8.965-6.728,11.482C271.15,269.467,268.237,270.295,265.217,270.295z"/>
		<path fill="#241A16" d="M232.017,325.27c-0.925,0-1.855-0.018-2.787-0.053l0.058-1.613c14.935,0.539,29.138-3.438,37.987-10.664
			l1.022,1.25C259.711,321.205,246.307,325.27,232.017,325.27z"/>
		<path fill="#241A16" d="M199.845,318.504c-15.934-6.6-26.57-17.988-33.474-35.848c-7.521-19.471-2.81-31.205,0.666-36.467
			c3.596-5.445,9.097-8.811,14.712-9.004c12.266-0.426,20.435,6.297,20.807,17.111c0.328,9.574-5.092,15.484-14.502,15.807
			c-8.622,0.305-10.731-7.463-10.751-7.541l1.562-0.406c0.072,0.268,1.873,6.584,9.134,6.334c8.524-0.295,13.24-5.445,12.941-14.137
			c-0.337-9.836-7.852-15.912-19.136-15.551c-5.091,0.176-10.107,3.27-13.418,8.277c-3.305,5.004-7.766,16.201-0.504,34.994
			c6.73,17.416,17.083,28.516,32.58,34.938L199.845,318.504z"/>
		<path fill="#241A16" d="M217.085,300.561c-24.386-9.016-22.971-32.727-22.954-32.967l1.614,0.115
			c-0.066,0.926-1.322,22.75,21.899,31.334L217.085,300.561z"/>
		<path fill="#241A16" d="M227.649,262.514c-6.371-6.219-16.474-22.861-13.935-45.811c2.339-21.172,16.828-36.4,35.229-37.031
			c8.695-0.303,15.422,1.24,19.997,4.576c4.411,3.219,6.757,8.018,6.973,14.264c0.397,11.59-7.479,16.074-12.871,16.26
			c-4.767,0.18-12.563-2.387-12.825-9.938c-0.257-7.563,4.532-10.406,4.736-10.523l0.805,1.4l-0.404-0.701l0.406,0.699
			c-0.17,0.1-4.151,2.52-3.927,9.068c0.247,7.178,8.172,8.463,11.151,8.379c3.281-0.113,11.713-2.955,11.313-14.588
			c-0.195-5.727-2.319-10.104-6.311-13.014c-4.273-3.119-10.673-4.555-18.988-4.268c-17.581,0.604-31.428,15.24-33.676,35.596
			c-2.47,22.326,7.296,38.459,13.457,44.473L227.649,262.514z"/>
		<path fill="#241A16" d="M234.388,239.01c-3.777-9.371-3.936-17.277-0.475-23.508c5.178-9.328,16.493-11.408,16.972-11.492
			l0.279,1.592c-0.109,0.018-11.05,2.045-15.845,10.697c-3.205,5.781-3.014,13.217,0.567,22.105L234.388,239.01z"/>
	</g>
</g>
</svg>
