<?xml version="1.0" encoding="utf-8"?>
<!-- Generator: Adobe Illustrator 16.0.0, SVG Export Plug-In . SVG Version: 6.00 Build 0)  -->
<!DOCTYPE svg PUBLIC "-//W3C//DTD SVG 1.1//EN" "http://www.w3.org/Graphics/SVG/1.1/DTD/svg11.dtd">
<svg version="1.1" id="Layer_1" xmlns="http://www.w3.org/2000/svg" xmlns:xlink="http://www.w3.org/1999/xlink" x="0px" y="0px"
	 width="566.93px" height="566.929px" viewBox="0 0 566.93 566.929" enable-background="new 0 0 566.93 566.929"
	 xml:space="preserve">
<g>
	<g>
		<path fill="#FFFFFF" d="M208.596,187.65c-1.966-10.064,3.482-20.576,13.21-22.721c8.307-1.83,13.317,1.938,15.856,5.574l0,0
			c2.896-2.486,7.625-5.674,14.116-5.293c10.514,0.611,17.271,8.051,15.096,16.611c-3.184,12.508,28.672,20.279,28.672,20.279
			l-15.563,61.172c0,0-63.816-11.645-80.037-47.279c-2.321-4.656-3.962-9.652-2.607-16.568
			C198.34,194.313,202.683,189.619,208.596,187.65"/>
		<path fill="#FFFFFF" d="M280.896,264.695l-1.135-0.207c-2.632-0.48-64.641-12.172-80.94-47.982
			c-2.261-4.531-4.168-9.797-2.696-17.318c1.047-5.34,5.346-10.09,11.082-12.346c-1.594-10.752,4.67-20.988,14.336-23.119
			c1.524-0.336,3.019-0.506,4.437-0.506c6.106,0,9.873,3.094,11.888,5.518c4.427-3.484,8.92-5.053,13.985-4.756
			c6.011,0.348,11.152,2.863,14.106,6.898c2.381,3.252,3.132,7.248,2.113,11.252c-0.414,1.625-0.14,3.205,0.837,4.83
			c5.132,8.539,26.714,13.889,26.931,13.941l1.214,0.295L280.896,264.695z M225.978,165.688c-1.24,0-2.555,0.15-3.905,0.449
			c-8.681,1.912-13.915,11.463-11.997,21.285l0.207,1.064l-1.03,0.342c-5.401,1.799-9.765,6.049-10.702,10.834
			c-1.328,6.795,0.418,11.602,2.501,15.781c14.604,32.09,69.433,44.609,78.022,46.389l14.972-58.844
			c-4.816-1.297-22.288-6.492-27.256-14.758c-1.313-2.188-1.689-4.445-1.11-6.711c0.844-3.322-0.161-6.48-2.127-9.164
			c-2.517-3.438-6.466-5.254-11.739-5.561c-4.766-0.277-8.864,1.102-13.103,4.74l-1.036,0.889l-0.781-1.119
			C235.451,169.242,231.907,165.688,225.978,165.688z"/>
	</g>
	<path fill="#FFFFFF" d="M281.388,265.203l-0.942-0.172c-2.679-0.486-65.758-12.332-82.321-48.576c-2.289-4.572-4.22-9.879-2.732-17.447
		c1.063-5.396,5.462-10.197,11.32-12.43c-1.701-10.861,4.62-21.242,14.407-23.391c1.701-0.375,3.369-0.564,4.958-0.564
		c6.615,0,10.355,3.146,12.082,5.184c2.738-2.184,7.119-4.75,13.786-4.355c6.071,0.35,11.256,2.877,14.222,6.934
		c2.373,3.242,3.12,7.223,2.102,11.211c-0.437,1.705-0.15,3.359,0.869,5.057c5.261,8.758,27.376,14.219,27.598,14.272l1.013,0.244
		L281.388,265.203z M226.078,164.682c-1.44,0-2.962,0.174-4.519,0.516c-8.964,1.969-14.648,11.775-12.673,21.861l0.175,0.889
		l-0.861,0.285c-5.583,1.852-9.815,6.236-10.787,11.174c-1.367,6.961,0.427,11.881,2.568,16.16
		c15.06,32.943,71.863,45.615,79.895,47.252l15.365-60.152c-4.562-1.207-22.786-6.496-27.868-14.953
		c-1.301-2.164-1.671-4.393-1.101-6.627c0.875-3.43,0.265-6.709-1.767-9.488c-2.604-3.555-7.225-5.775-12.679-6.092
		c-6.601-0.379-10.701,2.449-13.158,4.551l-0.86,0.736l-0.655-0.926C236.059,168.309,232.793,164.682,226.078,164.682z"/>
	<path fill="#D1D2D4" d="M215.124,195.539c-1.743-8.887,3.085-18.166,11.708-20.059c7.363-1.615,12.233,1.215,14.487,4.424
		l0.002-0.002c2.565-2.195,3.568,4.172,9.324,4.508c9.318,0.539,18.063-1.574,16.135,5.984
		c-2.821,11.043,25.413,17.902,25.413,17.902l-13.797,54.008c0,0-56.566-10.281-70.94-41.74c-2.06-4.113-3.515-8.525-2.313-14.629
		C206.031,201.422,209.882,197.279,215.124,195.539"/>
	<g>
		<path fill="#FFFFFF" d="M135.146,263.84c-10.38-12.664-3.352-31.42,13.451-35.152c35.353-7.857,48.762,42.912,48.762,42.912
			s13.591,50.341-21.771,58.196c-16.791,3.73-32.898-9.762-30.093-25.35c-9.354-1.645-17.213-8.627-19.473-17.051l0.03,0.102
			C123.795,279.072,127.676,269.219,135.146,263.84"/>
		<path fill="#FFFFFF" d="M169.898,331.66c-7.957,0-15.679-3.553-20.652-9.502c-4.073-4.875-5.879-10.771-5.148-16.73
			c-9.286-2.076-16.948-9.065-19.267-17.711h0.002c-2.195-8.378,1.382-18.296,8.574-24.104c-4.354-5.949-5.528-13.516-3.12-20.482
			c2.728-7.895,9.474-13.744,18.044-15.646c2.554-0.568,5.094-0.855,7.548-0.855c30.533,0,42.191,42.834,42.675,44.658
			c0.31,1.145,7.5,28.437-3.247,46.195c-4.27,7.053-10.813,11.604-19.449,13.523C173.894,331.439,171.89,331.66,169.898,331.66z
			 M127.247,287.18c2.175,7.926,9.75,14.519,18.464,16.048l1.221,0.219l-0.219,1.221c-1.015,5.629,0.561,11.277,4.43,15.906
			c4.511,5.395,11.523,8.617,18.757,8.617c1.814,0,3.638-0.203,5.42-0.6c7.953-1.768,13.968-5.938,17.873-12.393
			c10.205-16.863,3.047-44.004,2.976-44.277c-0.115-0.434-11.658-42.824-40.288-42.824c-2.274,0-4.635,0.27-7.014,0.795
			c-7.726,1.717-13.797,6.967-16.243,14.045c-2.3,6.648-1.028,13.617,3.479,19.117l0.833,1.018l-1.064,0.768
			c-7.098,5.113-10.723,14.508-8.622,22.338L127.247,287.18z"/>
	</g>
	<path fill="#241A16" d="M170.085,332.769c-8.095,0-15.943-3.607-21.001-9.656c-4.188-5.006-6.014-11.078-5.198-17.197
		c-9.542-2.051-17.428-9.193-19.798-18.043h0.002c-2.321-8.823,1.054-18.424,8.438-24.252c-4.504-6.02-5.675-13.484-3.196-20.648
		c2.823-8.17,9.808-14.223,18.682-16.193c2.622-0.582,5.228-0.877,7.742-0.877c31.097,0,43.375,44.783,43.493,45.236
		c0.318,1.174,7.668,29.074-3.306,47.203c-4.345,7.178-11.006,11.809-19.798,13.764
		C174.151,332.544,172.111,332.769,170.085,332.769z M126.104,287.441c2.251,8.217,10.103,15.051,19.128,16.637l1.021,0.18
		l-0.185,1.02c-1.053,5.846,0.578,11.711,4.595,16.514c4.671,5.586,11.931,8.922,19.422,8.922c1.877,0,3.767-0.207,5.612-0.619
		c8.225-1.826,14.443-6.141,18.483-12.818c10.52-17.385,3.153-45.322,3.078-45.602c-0.117-0.441-11.99-43.711-41.505-43.711
		c-2.365,0-4.821,0.277-7.295,0.828c-8.172,1.813-14.597,7.367-17.185,14.854c-2.354,6.813-1.077,13.924,3.505,19.516l0.696,0.846
		l-0.891,0.643C127.383,269.837,123.894,279.212,126.104,287.441L126.104,287.441L126.104,287.441z"/>
	<path fill="#D1D2D4" d="M146.863,263.104c-8.947-8.652-2.51-21.449,11.979-24c30.484-5.371,42.041,29.057,42.041,29.057
		s11.721,34.399-18.77,39.77c-14.479,2.549-28.366-6.674-25.944-17.324c-8.065-1.121-14.845-5.893-16.79-11.65l0.022,0.07
		C137.456,273.268,140.425,266.779,146.863,263.104"/>
	<g>
		<path fill="#FFFFFF" d="M162.21,216.477c-4.637-11.332-1.979-23.592,7.414-26.682c8.022-2.637,14.21,0.975,17.754,4.943
			l0.274-0.328c2.311-3.018,5.977-6.285,12.711-6.285c10.921,0,19.522,7.982,19.522,17.877c0,14.449,34.875,21.225,34.875,21.225
			v70.703c0,0-68.329-9.021-94.214-48.523c-3.583-5.148-6.565-10.732-6.979-18.697C153.264,224.822,156.67,219.115,162.21,216.477"
			/>
		<path fill="#FFFFFF" d="M255.996,299.337l-1.396-0.184c-0.69-0.092-69.191-9.549-95.086-49.07
			c-3.456-4.965-6.734-10.766-7.178-19.313c-0.313-6.021,2.995-11.863,8.32-14.877c-2.514-6.809-2.551-13.975-0.063-19.363
			c1.801-3.906,4.79-6.641,8.642-7.91c1.943-0.637,3.892-0.961,5.785-0.961c5.771,0,9.911,2.914,12.279,5.215
			c3.366-4.016,7.659-5.986,13.063-5.986c11.641,0,20.76,8.396,20.76,19.113c0,13.271,33.534,19.945,33.874,20.012l0.999,0.193
			L255.996,299.337L255.996,299.337z M175.021,190.131c-1.632,0-3.32,0.283-5.014,0.84c-3.185,1.045-5.662,3.326-7.169,6.594
			c-2.334,5.057-1.884,11.99,0.771,18.48l0.442,1.082l-1.056,0.502c-5.027,2.393-8.184,7.521-7.902,12.934
			c0.411,7.928,3.838,13.428,7.104,18.123c23.271,35.513,81.492,46.246,91.326,47.81v-68.261
			c-5.917-1.271-35.416-8.25-35.416-22.279c0-9.332-7.491-16.596-17.746-16.596c-6.535,0-9.825,3.311-11.729,5.803l-1.229,1.465
			l-0.951-1.064C184.643,193.533,180.752,190.131,175.021,190.131z"/>
	</g>
	<path fill="#241A16" d="M256.624,300.281l-1.164-0.154c-0.7-0.092-70.229-9.735-96.491-50.021c-3.499-5.047-6.814-10.936-7.262-19.607
		c-0.318-6.232,2.925-12.02,8.326-15.006c-2.576-6.898-2.605-14.225-0.051-19.762c1.839-3.988,4.863-6.771,8.747-8.055
		c6.782-2.242,13.795-0.586,18.585,4.133c3.385-3.963,7.646-5.893,12.985-5.893c11.651,0,21.132,8.672,21.132,19.33
		c0,13.746,34.017,20.564,34.36,20.633l0.831,0.16L256.624,300.281L256.624,300.281z M174.858,188.713
		c-1.794,0-3.638,0.309-5.481,0.92c-3.328,1.1-5.93,3.506-7.523,6.959c-2.432,5.268-2.271,12.371,0.43,19.004l0.366,0.896
		l-0.875,0.418c-5.16,2.471-8.303,7.762-8.011,13.482c0.422,8.156,3.572,13.742,6.914,18.564
		c23.913,36.678,84.703,47.512,93.888,48.958v-70.188c-5.525-1.18-35.191-8.184-35.191-22.48c0-9.523-8.558-17.271-19.072-17.271
		c-6.738,0-10.134,3.434-12.103,6.018l-0.758,0.994l-0.83-0.934C185.18,192.447,181.177,188.713,174.858,188.713z"/>
	<path fill="#D1D2D4" d="M174.875,221.334c-3.428-8.412-1.326-17.576,5.615-19.871c5.933-1.955,10.704,0.48,13.325,3.434
		l0.001-0.004c1.709-2.244,0.267,11.135,5.244,11.135c8.071,0,18.765-9.848,18.765-2.498c0,10.73,25.593,15.736,25.593,15.736v52.51
		c0,0-50.502-6.693-69.632-36.037c-2.652-3.824-4.854-7.971-5.159-13.887C168.399,227.477,170.778,223.295,174.875,221.334"/>
	<g>
		<path fill="#FFFFFF" d="M154.711,345.964c-17.146-2.869-26.118-21.232-16.549-34.432c20.13-27.779,68.4,1.225,68.4,1.225
			s43.921,29.668,23.782,57.447c-9.563,13.201-27.682,12.213-37.314-1.012c-8.116,4.607-19.144,4.355-27.128-0.439l0.093,0.055
			C158.014,364.013,153.243,354.57,154.711,345.964"/>
		<path fill="#FFFFFF" d="M212.496,380.857c-7.608,0-14.772-3.658-19.812-10.074c-3.79,1.938-8.171,2.957-12.739,2.957
			c-5.212,0-10.386-1.373-14.586-3.875l-0.002,0.004c-8.155-4.902-12.974-14.18-12.033-22.908
			c-8.535-1.803-15.44-7.393-18.611-15.129c-2.936-7.168-2.042-14.83,2.447-21.021c6.035-8.326,15.058-12.548,26.817-12.548
			c20.623,0,42.308,12.888,43.223,13.435c1.096,0.738,25.598,17.5,29.225,38.039c1.335,7.572-0.373,14.701-5.078,21.191
			C226.776,377.238,219.904,380.857,212.496,380.857L212.496,380.857z M193.38,367.574l0.649,0.893
			c4.593,6.307,11.323,9.92,18.467,9.92h0.001c6.703,0,12.688-3.166,16.849-8.906c4.297-5.93,5.859-12.426,4.646-19.311
			c-3.438-19.504-27.872-36.223-28.119-36.391c-0.162-0.096-21.966-13.047-41.894-13.047c-10.925,0-19.273,3.877-24.815,11.527
			c-3.979,5.484-4.767,12.277-2.162,18.633c2.987,7.297,9.686,12.477,17.914,13.854l1.222,0.205l-0.209,1.221
			c-1.349,7.928,3.111,16.963,10.613,21.521l0.002-0.002c3.837,2.307,8.597,3.576,13.403,3.576c4.531,0,8.847-1.088,12.477-3.148
			L193.38,367.574z"/>
	</g>
	<path fill="#241A16" d="M212.618,381.716c-7.758,0-15.062-3.762-20.172-10.352c-3.877,2.018-8.376,3.082-13.073,3.082
		c-5.279,0-10.524-1.393-14.777-3.926h-0.002c-8.325-5-13.042-14.164-11.972-23.061c-8.574-1.752-15.519-7.338-18.697-15.096
		c-3.003-7.336-2.074-15.197,2.548-21.572c6.146-8.48,15.304-12.781,27.223-12.781c20.772,0,42.479,12.949,43.396,13.5
		c1.104,0.744,26.052,17.809,29.736,38.691c1.354,7.668-0.379,14.891-5.146,21.465C227.055,378.054,220.106,381.716,212.618,381.716
		z M193.027,368.689l0.541,0.74c4.734,6.5,11.68,10.227,19.05,10.227c6.923,0,13.102-3.266,17.396-9.195
		c4.427-6.105,6.036-12.803,4.784-19.9c-3.534-20.027-28.564-37.145-28.818-37.313c-0.176-0.105-22.096-13.176-42.285-13.176
		c-11.22,0-19.818,4.016-25.556,11.932c-4.195,5.785-5.036,12.922-2.31,19.58c3.029,7.395,9.803,12.641,18.122,14.033l1.019,0.168
		l-0.174,1.02c-1.396,8.211,3.026,17.201,10.764,21.898h0.003c3.954,2.379,8.858,3.686,13.811,3.686
		c4.667,0,9.113-1.123,12.854-3.244L193.027,368.689z"/>
	<path fill="#D1D2D4" d="M160.772,339.851c-13.261-2.139-18.511-15.891-9.921-25.73c18.075-20.724,53.281,0.727,53.281,0.727
		s32.175,22.135,14.097,42.857c-8.588,9.85-22.766,9.107-29.283-0.752c-6.759,3.436-15.417,3.25-21.313-0.332l0.069,0.043
		C161.806,353.082,158.929,346.273,160.772,339.851"/>
	<g>
		<path fill="#FFFFFF" d="M173.499,354.052c-6.969,10.592-6.451,23.113,2.301,27.813c7.474,4.01,14.607,1.816,18.969-1.566l0,0
			c1.691,3.428,4.672,7.326,11.402,8.471c10.912,1.861,21.413-4.689,23.451-14.619c2.979-14.516,38.962-15.393,38.962-15.393
			l14.574-70.988c0,0-70.131-2.564-104.138,32.699c-4.644,4.559-8.771,9.662-10.826,17.586c-1.521,5.861,0.535,12.064,5.528,15.654
			L173.499,354.052z"/>
		<path fill="#FFFFFF" d="M279.984,290.197c0.054,0,0.103,0,0.152,0l-13.583,66.166c-8.344,0.416-36.396,2.885-39.354,17.287
			c-1.541,7.512-8.818,12.963-17.307,12.963c-1.103,0-2.214-0.094-3.31-0.281c-5.886-0.998-8.222-4.334-9.599-7.127l-1.34-2.717
			l-2.394,1.855c-1.542,1.197-4.785,3.209-9.166,3.209c-2.416,0-4.813-0.629-7.119-1.865c-2.687-1.443-4.528-3.879-5.331-7.045
			c-1.29-5.09,0.179-11.531,3.936-17.246l0.226-0.344l1.28-1.977l-1.911-1.375c-4.076-2.932-5.872-8.041-4.578-13.027
			c1.973-7.615,6.052-12.404,10.213-16.492C210.156,291.738,268.571,290.197,279.984,290.197 M279.984,287.727
			c-14.051,0-71.273,1.953-100.964,32.739c-4.644,4.561-8.771,9.662-10.826,17.586c-1.521,5.861,0.535,12.064,5.528,15.654
			l-0.225,0.346c-6.969,10.592-6.451,23.113,2.301,27.813c2.856,1.531,5.665,2.16,8.287,2.16c4.237,0,7.986-1.641,10.682-3.729
			c1.691,3.428,4.672,7.326,11.402,8.471c1.25,0.217,2.495,0.316,3.723,0.316c9.485,0,17.924-6.141,19.729-14.936
			c2.979-14.516,38.962-15.393,38.962-15.393l14.574-70.988C283.158,287.768,282.028,287.727,279.984,287.727L279.984,287.727z"/>
	</g>
	<path fill="#241A16" d="M209.892,390.115c-1.298,0-2.609-0.113-3.896-0.332c-5.246-0.893-9.049-3.502-11.585-7.961
		c-3.08,2.088-6.702,3.229-10.328,3.229l0,0c-2.999,0-5.95-0.766-8.771-2.281c-3.574-1.916-6.019-5.119-7.068-9.266
		c-1.493-5.887,0.039-13.16,4.099-19.559c-4.704-3.85-6.718-10.082-5.144-16.148c2.188-8.443,6.63-13.672,11.103-18.064
		c29.558-30.65,85.304-33.033,101.685-33.033c2.067,0,3.213,0.04,3.213,0.04l1.216,0.046l-14.984,72.98l-0.818,0.021
		c-0.353,0.01-35.195,1.021-37.979,14.57C228.756,383.486,220.034,390.115,209.892,390.115z M195.692,379.839
		c1.408,2.861,4.048,6.791,10.649,7.912c1.174,0.201,2.368,0.305,3.551,0.305c9.169,0,17.041-5.938,18.72-14.113
		c2.89-14.059,33.542-15.957,39.125-16.188l14.165-68.985c-0.498-0.008-1.142-0.015-1.918-0.015
		c-16.176,0-71.208,2.336-100.222,32.424c-4.283,4.207-8.51,9.178-10.571,17.133c-1.443,5.566,0.569,11.279,5.133,14.561
		l0.797,0.572l-0.759,1.168c-3.972,6.039-5.512,12.906-4.126,18.387c0.906,3.568,2.998,6.322,6.049,7.957
		c2.52,1.352,5.145,2.037,7.799,2.037c4.809,0,8.359-2.199,10.051-3.514l0.913-0.754"/>
	<path fill="#D1D2D4" d="M190.779,348.845c-4.647,7.068-4.303,15.422,1.536,18.559c4.988,2.676,9.743,1.211,12.654-1.047h0.003
		c1.127,2.287,3.115,4.891,7.607,5.654c7.281,1.24,14.285-3.129,15.647-9.758c1.988-9.684,25.994-10.27,25.994-10.27l9.726-47.365
		c0,0-46.793-1.713-69.481,21.814c-3.101,3.045-5.854,6.449-7.224,11.736c-1.017,3.912,0.356,8.049,3.687,10.445L190.779,348.845z"
		/>
	<g>
		<path fill="#FFFFFF" d="M152.873,312.541c-11.444-6.625-17.513-18.25-12-26.018c4.704-6.633,12.164-7.58,17.728-6.334
			c-0.179-3.756,0.571-8.461,6.023-12.232c8.843-6.107,21.449-4.537,28.161,3.512c9.81,11.756,42.406-2.141,42.406-2.141
			l47.967,57.519c0,0-61.436,30.904-109.186,13.25c-6.402-2.182-12.599-5.059-18.342-11.309c-4.24-4.619-5.454-11.004-2.766-16.248
			H152.873z"/>
		<path fill="#FFFFFF" d="M176.762,266.705c5.612,0,10.761,2.313,14.126,6.346c3.104,3.723,8.23,5.611,15.231,5.611
			c10.959,0,23.752-4.58,28.327-6.367l44.764,53.675c-9.348,4.236-40.371,17.105-72.21,17.105c-11.846,0-22.67-1.781-32.229-5.316
			c-5.706-1.943-11.752-4.58-17.321-10.639c-3.242-3.533-4.332-8.145-2.958-12.105l1.084-3.246l-1.468-1.365
			c-6.568-3.805-11.381-9.51-12.554-14.889c-0.628-2.885-0.179-5.428,1.332-7.561c3.379-4.765,8.102-5.763,11.469-5.763
			c1.242,0,2.488,0.137,3.703,0.41l3.161,0.707l-0.152-3.236c-0.143-2.998,0.295-6.855,4.959-10.08
			C169.14,267.842,172.851,266.705,176.762,266.705 M176.762,264.234c-4.234,0-8.506,1.213-12.14,3.723
			c-5.452,3.771-6.202,8.477-6.023,12.232c-1.33-0.297-2.764-0.471-4.246-0.471c-4.722,0-9.897,1.756-13.48,6.805
			c-5.513,7.768,0.556,19.393,12,26.018h-0.007c-2.688,5.244-1.476,11.629,2.766,16.248c5.743,6.25,11.938,9.127,18.342,11.309
			c10.611,3.924,21.889,5.447,33.028,5.447c38.984,0,76.156-18.697,76.156-18.697l-47.967-57.519c0,0-16.097,6.863-29.07,6.863
			c-5.488,0-10.422-1.229-13.336-4.723C188.833,266.727,182.833,264.234,176.762,264.234L176.762,264.234z"/>
	</g>
	<path fill="#241A16" d="M206.992,346.574c-12.256,0-23.482-1.854-33.377-5.51c-6.117-2.088-12.644-4.941-18.741-11.578
		c-4.382-4.77-5.641-11.162-3.333-16.539c-7.078-4.332-12.061-10.516-13.404-16.688c-0.836-3.832-0.18-7.406,1.896-10.332
		c3.312-4.668,8.397-7.238,14.321-7.238c1.07,0,2.143,0.086,3.198,0.254c0.098-5.012,2.229-8.889,6.485-11.832
		c3.699-2.557,8.101-3.906,12.726-3.906c6.655,0,12.783,2.771,16.814,7.604c2.406,2.887,6.628,4.354,12.543,4.354
		c12.609,0,28.509-6.713,28.666-6.779l0.705-0.299l49.288,59.102l-1.156,0.582c-0.375,0.189-37.842,18.805-76.622,18.807
		C206.999,346.574,206.996,346.574,206.992,346.574z M153.512,313.57c-2.094,4.668-0.998,10.303,2.876,14.523
		c5.788,6.297,12.031,9.021,17.917,11.029c9.687,3.58,20.677,5.391,32.687,5.391c0.004,0,0.007,0,0.01,0
		c34.468,0,67.91-14.904,74.521-18.021l-46.638-55.922c-3.299,1.338-17.125,6.65-28.766,6.65c-6.555,0-11.308-1.715-14.125-5.094
		c-3.642-4.363-9.189-6.863-15.232-6.863c-4.206,0-8.2,1.223-11.555,3.541c-5.309,3.67-5.728,8.227-5.581,11.336l0.063,1.35
		l-1.317-0.295c-1.316-0.297-2.67-0.445-4.021-0.445c-3.032,0-8.71,0.828-12.642,6.369c-1.732,2.441-2.273,5.451-1.564,8.699
		c1.255,5.766,6.329,11.832,13.241,15.832l0.162,1.01L153.512,313.57z"/>
	<path fill="#D1D2D4" d="M177.88,309.562c-7.543-4.883-11.543-12.818-7.911-17.693c3.104-4.164,8.021-4.453,11.688-3.377
		c-0.115-2.484,0.378-5.556,3.971-7.796c5.831-3.629,14.143-2.027,18.567,3.584c6.469,8.193,27.962,0.5,27.962,0.5l31.626,40.083
		c0,0-40.509,17.605-71.989,3.818c-4.223-1.729-8.308-3.904-12.093-8.281C176.902,317.162,176.101,312.898,177.88,309.562
		L177.88,309.562z"/>
	<g>
		<path fill="#FFFFFF" d="M358.074,187.934c1.953-9.959-3.457-20.355-13.117-22.475c-8.25-1.813-13.196,1.582-15.72,5.176l0,0
			c-2.875-2.455-7.604-5.275-14.051-4.9c-10.439,0.605-17.152,7.965-14.992,16.434c3.16,12.371-28.477,20.061-28.477,20.061
			l15.459,60.51c0,0,63.381-11.516,79.492-46.768c2.304-4.604,3.934-9.547,2.589-16.391
			C368.26,194.523,363.949,189.879,358.074,187.934"/>
		<path fill="#FFFFFF" d="M286.263,264.16l-16.052-62.836l1.212-0.295c0.217-0.053,21.679-5.357,26.754-13.805
			c0.96-1.598,1.229-3.152,0.82-4.75c-1.011-3.955-0.27-7.904,2.087-11.121c2.932-4.008,8.046-6.506,14.03-6.852
			c6.116-0.367,10.862,2.047,13.915,4.381c1.932-2.283,5.556-5.164,11.54-5.164c1.479,0,3.043,0.178,4.65,0.533
			c9.602,2.107,15.82,12.232,14.246,22.871c5.694,2.232,9.962,6.936,11.004,12.219c1.462,7.439-0.434,12.656-2.697,17.182
			c-16.174,35.391-77.764,46.957-80.378,47.432L286.263,264.16z M273.22,203.117l14.863,58.184
			c8.549-1.766,62.977-14.148,77.461-45.842c2.088-4.176,3.819-8.926,2.499-15.641c-0.933-4.729-4.996-8.934-10.359-10.713
			l-1.032-0.342l0.21-1.068c1.903-9.705-3.557-19.139-12.171-21.031c-1.435-0.314-2.819-0.475-4.12-0.475
			c-5.543,0-8.674,2.805-10.321,5.156l-0.781,1.113l-1.033-0.885c-2.638-2.252-7.13-4.945-13.175-4.607
			c-5.247,0.307-9.688,2.436-12.182,5.846c-1.938,2.648-2.521,5.779-1.688,9.051c0.572,2.24,0.203,4.471-1.097,6.635
			C295.377,196.682,278.024,201.826,273.22,203.117z"/>
	</g>
	<path fill="#241A16" d="M285.54,265.203l-16.357-64.033l1.012-0.244c0.224-0.055,22.342-5.521,27.6-14.273c1.021-1.699,1.306-3.354,0.87-5.057
		c-1.021-3.988-0.272-7.969,2.102-11.211c2.965-4.057,8.146-6.584,14.22-6.934c6.613-0.395,11.001,2.145,13.785,4.354
		c1.728-2.035,5.469-5.182,12.084-5.182c1.588,0,3.254,0.189,4.956,0.564c9.79,2.148,16.11,12.529,14.407,23.391
		c5.855,2.232,10.257,7.031,11.321,12.43c1.487,7.568-0.442,12.875-2.749,17.48c-16.548,36.211-79.627,48.057-82.307,48.543
		L285.54,265.203z M271.689,202.666l15.366,60.152c8.03-1.637,64.835-14.305,79.876-47.219c2.158-4.313,3.952-9.232,2.586-16.193
		c-0.975-4.938-5.211-9.324-10.79-11.174l-0.862-0.285l0.177-0.889c1.979-10.086-3.706-19.893-12.674-21.861
		c-1.558-0.342-3.076-0.516-4.516-0.516c-6.715,0-9.981,3.627-11.077,5.186l-0.649,0.93l-0.861-0.738
		c-2.458-2.1-6.562-4.939-13.162-4.553c-5.456,0.316-10.075,2.537-12.678,6.092c-2.032,2.779-2.644,6.059-1.769,9.488
		c0.571,2.234,0.201,4.465-1.099,6.627C294.472,196.17,276.25,201.459,271.689,202.666z"/>
	<path fill="#D1D2D4" d="M351.806,195.539c1.743-8.887-3.088-18.166-11.709-20.059c-7.364-1.615-12.233,1.215-14.485,4.424
		l-0.003-0.002c-2.566-2.195-3.57,4.172-9.325,4.508c-9.318,0.539-18.063-1.574-16.135,5.984
		c2.821,11.043-25.415,17.902-25.415,17.902l13.797,54.008c0,0,56.567-10.281,70.943-41.74c2.058-4.113,3.514-8.525,2.313-14.629
		C360.898,201.422,357.049,197.279,351.806,195.539"/>
	<g>
		<path fill="#FFFFFF" d="M431.447,264.156c11.519-13.689,3.064-32.314-13.784-36.055c-35.456-7.879-49.046,43.479-49.046,43.479
			s-13.631,50.48,21.83,58.361c16.843,3.742,32.993-9.789,30.18-25.422c9.382-1.65,17.924-8.346,20.185-16.793l0,0
			C443.078,279.277,439.976,269.686,431.447,264.156"/>
		<path fill="#FFFFFF" d="M396.157,331.804c-0.002,0-0.002,0-0.002,0c-2.001,0-4.011-0.221-5.977-0.654
			c-8.658-1.926-15.221-6.486-19.501-13.563c-10.775-17.809-3.566-45.173-3.252-46.33c0.484-1.84,12.313-45.215,42.988-45.215
			c2.444,0,4.973,0.285,7.517,0.852c8.909,1.979,16.145,8.23,18.884,16.318c2.391,7.059,1.081,14.523-3.574,20.678
			c7.67,5.607,11.181,15.146,8.765,24.153c-2.221,8.295-10.343,15.336-19.979,17.455c0.734,5.977-1.077,11.895-5.162,16.781
			C411.875,328.246,404.135,331.804,396.157,331.804z M410.415,228.514c-28.771,0-40.487,42.947-40.604,43.383
			c-0.073,0.277-7.245,27.521,2.985,44.415c3.916,6.475,9.945,10.65,17.921,12.424c1.788,0.398,3.616,0.6,5.438,0.6
			c0,0,0.001,0,0.003,0c7.255,0,14.286-3.227,18.809-8.639c3.884-4.645,5.462-10.313,4.446-15.957l-0.22-1.225l1.222-0.215
			c8.73-2.619,17.133-8.159,19.202-15.895c2.291-8.527-1.182-17.248-8.842-22.213l-1.174-0.762l0.901-1.072
			c4.771-5.666,6.216-12.723,3.972-19.354c-2.463-7.275-8.854-12.166-16.925-13.957C415.18,229.523,412.678,228.514,410.415,228.514
			z"/>
	</g>
	<path fill="#241A16" d="M396.844,332.769c-2.027,0-4.065-0.225-6.063-0.666c-8.792-1.953-15.452-6.586-19.799-13.764
		c-10.97-18.131-3.62-46.028-3.301-47.207c0.118-0.449,12.394-45.232,43.492-45.232c2.516,0,5.121,0.295,7.743,0.877
		c8.873,1.971,15.855,8.023,18.682,16.193c2.476,7.164,1.307,14.629-3.196,20.648c7.382,5.828,10.758,15.428,8.438,24.251h0.002
		c-2.37,8.851-10.256,15.992-19.798,18.043c0.813,6.119-1.013,12.188-5.198,17.195C412.79,329.158,404.937,332.769,396.844,332.769z
		 M411.175,227.961c-29.533,0-41.387,43.27-41.504,43.705c-0.076,0.285-7.438,28.242,3.078,45.611
		c4.042,6.676,10.26,10.988,18.48,12.814c1.847,0.412,3.735,0.619,5.613,0.619c7.491,0,14.753-3.336,19.423-8.922
		c4.015-4.805,5.646-10.668,4.595-16.514l-0.184-1.02l1.018-0.18c9.028-1.586,16.88-8.42,19.129-16.637l0,0
		c2.207-8.234-1.279-17.607-8.479-22.795l-0.891-0.643l0.695-0.846c4.581-5.592,5.858-12.703,3.504-19.516
		c-2.59-7.486-9.011-13.041-17.183-14.854C415.998,228.238,413.542,227.961,411.175,227.961z"/>
	<path fill="#D1D2D4" d="M420.065,263.104c8.949-8.652,2.51-21.449-11.978-24c-30.485-5.371-42.042,29.057-42.042,29.057
		s-11.723,34.399,18.769,39.77c14.479,2.549,28.368-6.674,25.949-17.324c8.063-1.121,14.843-5.893,16.787-11.65l-0.023,0.07
		C429.474,273.268,426.505,266.779,420.065,263.104"/>
	<g>
		<path fill="#FFFFFF" d="M404.544,216.357c4.615-11.336,1.956-23.488-7.395-26.576c-7.986-2.641-14.1,0.984-17.628,4.957l0,0
			c-2.302-3.021-6.268-6.631-12.974-6.631c-10.87,0-18.495,8.551-19.685,17.922c-1.819,14.338-34.464,21.193-34.464,21.193v70.723
			c0,0,68.162-9.766,93.781-48.537c3.456-5.229,6.535-10.734,6.947-18.701C413.433,224.816,410.058,218.996,404.544,216.357"/>
		<path fill="#FFFFFF" d="M311.167,299.371v-73.152l0.979-0.205c0.319-0.068,31.803-6.838,33.491-20.143
			c1.171-9.211,8.896-19,20.91-19c5.195,0,9.58,2.018,13.048,6.002c2.36-2.309,6.479-5.229,12.196-5.229
			c1.881,0,3.813,0.324,5.745,0.961c3.842,1.271,6.819,3.998,8.616,7.887c2.471,5.355,2.435,12.49-0.061,19.283
			c5.297,3.021,8.584,8.906,8.271,14.996c-0.438,8.506-3.922,14.432-7.15,19.318c-25.629,38.786-93.95,48.981-94.638,49.079
			L311.167,299.371z M313.635,228.211v68.283c9.856-1.672,70.288-16.09,91.249-47.861c3.187-4.83,6.604-10.104,7.011-17.988
			c0.284-5.486-2.886-10.779-7.886-13.174l-1.049-0.502l0.438-1.078c2.637-6.477,2.828-13.34,0.51-18.363
			c-1.5-3.252-3.972-5.525-7.147-6.576c-1.681-0.553-3.353-0.836-4.969-0.836c-5.667,0-9.542,3.41-11.348,5.443l-0.995,1.121
			l-0.911-1.193c-3.106-4.076-7.141-6.145-11.99-6.145c-10.715,0-17.396,8.473-18.457,16.842
			C346.344,219.943,319.279,226.906,313.635,228.211z"/>
	</g>
	<path fill="#241A16" d="M310.304,300.281v-74.242l0.831-0.16c0.345-0.068,34.362-6.887,34.362-20.633c0-10.658,9.479-19.33,21.13-19.33
		c5.341,0,9.6,1.93,12.984,5.891c3.345-3.287,7.819-5.154,12.456-5.154c2.017,0,4.078,0.344,6.131,1.023
		c3.885,1.283,6.907,4.066,8.747,8.055c2.558,5.537,2.525,12.863-0.051,19.762c5.405,2.986,8.647,8.773,8.325,15.006
		c-0.448,8.676-3.762,14.563-7.277,19.633c-26.246,40.26-95.774,49.905-96.475,49.997L310.304,300.281z M312.364,227.727v70.187
		c9.186-1.445,69.981-12.287,93.872-48.931c3.357-4.844,6.509-10.43,6.931-18.59c0.295-5.721-2.85-11.012-8.011-13.482l-0.875-0.418
		l0.364-0.896c2.701-6.633,2.862-13.736,0.434-19.004c-1.597-3.453-4.196-5.859-7.525-6.959c-1.843-0.611-3.688-0.92-5.483-0.92
		c-6.317,0-10.32,3.734-11.75,5.34l-0.83,0.938l-0.758-0.994c-1.969-2.586-5.364-6.021-12.104-6.021
		c-10.517,0-19.07,7.748-19.07,17.271C347.557,219.543,317.889,226.547,312.364,227.727z"/>
	<path fill="#D1D2D4" d="M392.054,221.334c3.426-8.412,1.325-17.576-5.616-19.871c-5.93-1.955-10.706,0.48-13.325,3.434
		l-0.003-0.004c-1.708-2.244-0.264,11.135-5.24,11.135c-8.071,0-18.768-9.848-18.768-2.498c0,10.73-25.589,15.736-25.589,15.736
		v52.51c0,0,50.501-6.693,69.63-36.037c2.65-3.824,4.855-7.971,5.16-13.887C398.529,227.477,396.148,223.295,392.054,221.334"/>
	<g>
		<path fill="#FFFFFF" d="M259.015,179.203c-16.871-7.104-36.126,5.213-36.126,23.328c0,38.125,60.141,38.023,60.141,38.023
			s60.145,0.102,60.145-38.023c0-18.115-19.406-30.432-36.277-23.328c-4.191-9.068-14.014-15.551-24.073-15.551h0.266
			C273.032,163.652,263.212,170.135,259.015,179.203"/>
		<path fill="#FFFFFF" d="M283.037,241.789h-0.008c-2.51,0-61.375-0.447-61.375-39.258c0-14.67,12.25-26.605,27.307-26.605
			c3.234,0,6.406,0.574,9.452,1.707c4.634-8.918,14.489-15.105,24.41-15.211v-0.004l0.266,0.004
			c9.933,0.111,19.785,6.299,24.416,15.211c3.042-1.133,6.219-1.707,9.462-1.707c15.133,0,27.442,11.936,27.442,26.605
			C344.409,241.342,285.543,241.789,283.037,241.789z M248.961,178.398c-13.693,0-24.834,10.824-24.834,24.133
			c0,36.369,56.494,36.787,58.899,36.787h0.011c2.403,0,58.9-0.418,58.9-36.787c0-13.309-11.201-24.133-24.972-24.133
			c-3.299,0-6.525,0.654-9.589,1.945l-1.103,0.463l-0.499-1.084c-4.013-8.68-13.399-14.779-22.828-14.834
			c-9.409,0.055-18.796,6.154-22.811,14.834l-0.501,1.084l-1.102-0.463C255.471,179.053,252.252,178.398,248.961,178.398z"/>
	</g>
	<path fill="#241A16" d="M283.037,242.398h-0.008c-2.554,0-62.435-0.459-62.435-40.176c0-14.912,12.739-27.51,27.82-27.51
		c3.277,0,6.493,0.598,9.569,1.779c4.609-9.111,14.452-15.217,24.833-15.324v-0.002l0.272,0.002
		c10.314,0.111,20.423,6.354,24.983,15.324c3.076-1.182,6.293-1.779,9.571-1.779c15.083,0,27.825,12.598,27.825,27.51
		C345.471,241.939,285.586,242.398,283.037,242.398z M248.416,176.773c-13.966,0-25.763,11.654-25.763,25.449
		c0,37.684,57.905,38.115,60.373,38.115h0.011c2.465,0,60.376-0.432,60.376-38.115c0-13.795-11.801-25.449-25.767-25.449
		c-3.325,0-6.581,0.666-9.676,1.98l-0.92,0.391l-0.42-0.91c-4.027-8.783-13.767-14.955-23.682-15.01
		c-9.969,0.055-19.426,6.088-23.52,15.01l-0.418,0.91l-0.92-0.391C254.997,177.439,251.74,176.773,248.416,176.773z"/>
	<path fill="#D1D2D4" d="M266.674,199.352c-11.485-5.104-24.581,4.021-24.581,17.027c0,27.383,40.938,27.307,40.938,27.307
		s40.942,0.076,40.942-27.307c0-13.006-13.102-22.131-24.584-17.027c-2.856-6.516-9.653-10.891-16.501-10.891h0.184
		C276.224,188.461,269.53,192.836,266.674,199.352"/>
	<g>
		<path fill="#FFFFFF" d="M412.211,345.929c17.063-2.85,25.988-20.58,16.462-33.689c-20.037-27.609-67.897,0.377-67.897,0.377
			s-43.719,29.486-23.674,57.092c9.521,13.121,27.556,12.139,37.145-1c8.079,4.576,19.056,4.326,27.002-0.443l0,0
			C409.193,363.501,413.633,354.878,412.211,345.929"/>
		<path fill="#FFFFFF" d="M354.868,380.302c-7.373,0-14.215-3.596-18.768-9.869c-4.683-6.447-6.385-13.533-5.056-21.059
			c3.602-20.418,28.003-37.084,29.041-37.783c0.954-0.563,22.051-12.762,42.352-12.762c11.965,0,21.127,4.268,27.234,12.682
			c4.431,6.098,5.344,13.574,2.504,20.514c-3.109,7.604-10.009,13.107-18.588,14.904c0.916,8.838-3.586,17.527-11.705,22.396
			c-4.197,2.52-9.39,3.908-14.613,3.908h-0.001c-4.547,0-8.905-1.016-12.678-2.938C369.572,376.669,362.441,380.302,354.868,380.302
			z M402.437,301.302c-19.637,0-40.826,12.256-41.038,12.381c-0.178,0.121-24.506,16.744-27.921,36.127
			c-1.205,6.838,0.35,13.285,4.62,19.172c4.144,5.709,10.099,8.852,16.77,8.852c7.11,0,13.809-3.59,18.38-9.852l0.647-0.893
			l0.959,0.543c3.611,2.047,7.903,3.127,12.414,3.127h0.001c4.785,0,9.522-1.262,13.342-3.555
			c7.615-4.564,11.541-12.953,10.231-21.195l-0.192-1.209l1.209-0.203c8.271-1.381,15.106-6.359,18.03-13.51
			c2.507-6.127,1.699-12.73-2.216-18.123C422.055,305.224,413.565,301.302,402.437,301.302z"/>
	</g>
	<path fill="#241A16" d="M354.311,381.716c-7.491,0-14.438-3.662-19.063-10.049c-4.768-6.574-6.498-13.797-5.146-21.465
		c3.688-20.883,28.634-37.947,29.693-38.662c0.959-0.58,22.666-13.528,43.438-13.528c11.918,0,21.077,4.302,27.226,12.78
		c4.622,6.375,5.551,14.236,2.546,21.57c-3.178,7.76-10.123,13.346-18.695,15.098c1.063,8.855-3.615,17.99-11.88,23.006l0,0l0,0l0,0
		c-0.009,0.004-0.017,0.014-0.025,0.016c-0.009,0.006-0.017,0.012-0.026,0.016l0,0l0,0v0.002v-0.002
		c-4.266,2.549-9.524,3.951-14.819,3.951c-4.698,0-9.197-1.064-13.076-3.082C369.374,377.955,362.07,381.716,354.311,381.716z
		 M403.233,300.07c-20.189,0-42.109,13.072-42.331,13.205c-0.207,0.141-25.243,17.271-28.772,37.289
		c-1.25,7.098,0.357,13.791,4.784,19.896c4.297,5.93,10.477,9.195,17.397,9.195c7.372,0,14.313-3.73,19.049-10.229l0.54-0.738
		l0.799,0.451c3.743,2.121,8.188,3.244,12.857,3.244c4.938,0,9.834-1.303,13.785-3.67c7.75-4.688,12.188-13.699,10.791-21.914
		l-0.175-1.018l1.019-0.17c8.319-1.393,15.094-6.641,18.121-14.033c2.729-6.658,1.889-13.797-2.306-19.58
		C423.053,304.085,414.457,300.07,403.233,300.07z"/>
	<path fill="#D1D2D4" d="M406.156,339.851c13.26-2.139,18.511-15.891,9.922-25.73c-18.077-20.724-53.28,0.727-53.28,0.727
		s-32.175,22.135-14.1,42.857c8.591,9.85,22.768,9.107,29.287-0.752c6.757,3.436,15.414,3.25,21.312-0.332l-0.069,0.043
		C405.124,353.082,408,346.273,406.156,339.851"/>
	<g>
		<path fill="#FFFFFF" d="M393.43,354.052c6.967,10.592,6.45,23.113-2.301,27.813c-7.476,4.01-14.605,1.814-18.967-1.568
			l-0.001,0.002c-1.69,3.428-4.674,7.326-11.402,8.471c-10.914,1.861-21.415-4.689-23.454-14.619
			c-2.979-14.516-38.962-15.393-38.962-15.393l-14.574-70.988c0,0,70.132-2.564,104.137,32.699
			c4.646,4.559,8.772,9.662,10.828,17.586c1.521,5.861-0.537,12.064-5.527,15.654L393.43,354.052z"/>
		<path fill="#FFFFFF" d="M286.946,290.197L286.946,290.197c11.411,0,69.825,1.541,99.229,32.031
			c4.113,4.039,8.19,8.826,10.166,16.445c1.296,4.986-0.503,10.098-4.578,13.027l-1.912,1.375l1.281,1.977l0.231,0.357
			c3.75,5.701,5.219,12.143,3.929,17.23c-0.804,3.166-2.647,5.604-5.332,7.045c-2.308,1.236-4.701,1.863-7.114,1.863
			c-4.379,0-7.624-2.01-9.169-3.209l-2.324-1.709l-1.408,2.572c-1.398,2.35-3.714,6.129-9.6,7.127
			c-1.094,0.188-2.208,0.281-3.311,0.281c-8.488,0-15.768-5.451-17.309-12.963c-2.957-14.402-31.008-16.871-39.353-17.287
			l-13.584-66.166C286.844,290.197,286.894,290.197,286.946,290.197 M286.945,287.727c-2.044,0-3.176,0.041-3.176,0.041
			l14.574,70.987c0,0,35.981,0.877,38.962,15.395c1.807,8.795,10.245,14.936,19.73,14.936c1.228,0,2.474-0.102,3.724-0.316
			c6.729-1.145,9.712-5.043,11.402-8.471l0.001-0.002c2.693,2.09,6.444,3.727,10.684,3.727c2.62,0,5.427-0.625,8.283-2.158
			c8.751-4.697,9.268-17.219,2.301-27.811l-0.225-0.346c4.99-3.59,7.049-9.793,5.527-15.654
			c-2.056-7.924-6.184-13.027-10.828-17.586C358.219,289.68,300.997,287.725,286.945,287.727L286.945,287.727z"/>
	</g>
	<path fill="#241A16" d="M357.037,390.115c-10.143,0-18.863-6.629-20.738-15.76c-2.781-13.547-37.626-14.561-37.979-14.57l-0.815-0.02
		l-14.985-72.982l1.217-0.045c0,0,1.146-0.041,3.212-0.041c16.379,0,72.126,2.383,101.703,33.053
		c4.453,4.373,8.894,9.602,11.083,18.047c1.575,6.066-0.438,12.297-5.146,16.148c4.059,6.395,5.593,13.672,4.1,19.559
		c-1.05,4.146-3.494,7.35-7.067,9.266c-2.821,1.518-5.772,2.281-8.771,2.281c-3.624,0-7.25-1.141-10.329-3.229
		c-2.537,4.459-6.34,7.068-11.585,7.961C359.646,390.001,358.337,390.115,357.037,390.115z M299.191,357.755
		c5.584,0.23,36.237,2.129,39.123,16.188c1.679,8.178,9.552,14.113,18.723,14.113c1.184,0,2.378-0.104,3.551-0.305
		c6.604-1.121,9.242-5.051,10.649-7.912l0.561-1.129l0.994,0.771c1.693,1.311,5.249,3.51,10.056,3.51
		c2.655,0,5.277-0.686,7.795-2.037c3.053-1.635,5.143-4.389,6.049-7.957c1.389-5.479-0.151-12.348-4.121-18.381l-0.761-1.174
		l0.796-0.572c4.563-3.279,6.578-8.992,5.133-14.557c-2.063-7.961-6.291-12.93-10.551-17.115
		c-29.034-30.107-84.064-32.443-100.241-32.443c-0.775,0-1.42,0.007-1.918,0.015L299.191,357.755z"/>
	<path fill="#D1D2D4" d="M376.15,348.845c4.647,7.068,4.304,15.422-1.535,18.559c-4.987,2.676-9.747,1.211-12.656-1.047h-0.001
		c-1.128,2.287-3.116,4.891-7.607,5.654c-7.28,1.24-14.287-3.129-15.648-9.758c-1.985-9.684-25.996-10.27-25.996-10.27
		l-9.724-47.365c0,0,46.793-1.713,69.482,21.814c3.098,3.045,5.853,6.449,7.224,11.736c1.017,3.912-0.356,8.049-3.688,10.445
		L376.15,348.845z"/>
	<g>
		<path fill="#FFFFFF" d="M414.056,312.541c11.442-6.625,17.51-18.25,12-26.018c-4.704-6.633-12.164-7.58-17.726-6.334
			c0.175-3.756-0.573-8.461-6.025-12.232c-8.84-6.107-21.451-4.537-28.161,3.512c-9.809,11.756-42.407-2.141-42.407-2.141
			l-47.968,57.519c0,0,61.438,30.904,109.188,13.25c6.399-2.182,12.602-5.059,18.341-11.309c4.243-4.619,5.456-11.004,2.764-16.248
			H414.056z"/>
		<path fill="#FFFFFF" d="M390.168,266.705c3.911,0,7.623,1.137,10.733,3.287c4.663,3.223,5.102,7.082,4.961,10.084l-0.15,3.232
			l3.16-0.707c1.215-0.273,2.462-0.41,3.702-0.41c3.367,0,8.091,0.998,11.468,5.76c1.512,2.135,1.961,4.678,1.331,7.563
			c-1.174,5.378-5.982,11.083-12.555,14.89l-1.139,1.568l0.757,3.041c1.373,3.963,0.286,8.57-2.958,12.105
			c-5.564,6.057-11.614,8.691-17.379,10.66c-9.503,3.514-20.326,5.295-32.172,5.295c-31.838,0-62.862-12.867-72.209-17.104
			l44.764-53.676c4.573,1.787,17.367,6.367,28.327,6.367c7.001,0,12.127-1.889,15.233-5.613
			C379.404,269.016,384.552,266.705,390.168,266.705 M390.168,264.234c-6.071,0-12.07,2.492-16.022,7.234
			c-2.914,3.494-7.848,4.723-13.335,4.723c-12.976,0-29.072-6.863-29.072-6.863l-47.968,57.519c0,0,37.174,18.697,76.158,18.697
			c11.139,0,22.417-1.523,33.028-5.447c6.399-2.182,12.602-5.059,18.341-11.309c4.243-4.619,5.456-11.004,2.764-16.248h-0.004
			c11.442-6.625,17.51-18.25,12-26.018c-3.582-5.049-8.76-6.805-13.482-6.805c-1.479,0-2.917,0.174-4.242,0.471
			c0.175-3.756-0.573-8.461-6.025-12.232C398.673,265.447,394.401,264.234,390.168,264.234L390.168,264.234z"/>
	</g>
	<path fill="#241A16" d="M359.937,346.574c-0.003,0-0.006,0-0.01,0c-38.78-0.002-76.245-18.617-76.621-18.807l-1.158-0.582l49.288-59.104
		l0.704,0.301c0.159,0.066,16.057,6.779,28.666,6.779h0.003c5.913-0.002,10.136-1.467,12.545-4.354
		c4.028-4.832,10.155-7.604,16.813-7.604c4.625,0,9.024,1.35,12.725,3.906c4.255,2.943,6.385,6.82,6.486,11.832
		c1.057-0.168,2.128-0.254,3.195-0.254c5.928,0,11.014,2.57,14.322,7.238c2.074,2.926,2.73,6.5,1.896,10.332
		c-1.346,6.172-6.329,12.355-13.404,16.686c2.308,5.379,1.049,11.771-3.334,16.541c-6.094,6.635-12.621,9.488-18.766,11.586
		C383.423,344.72,372.191,346.574,359.937,346.574z M285.407,326.492c6.611,3.115,40.064,18.021,74.521,18.021
		c0.004,0,0.007,0,0.01,0c12.012,0,23-1.809,32.663-5.383c5.912-2.018,12.156-4.742,17.938-11.037
		c3.876-4.221,4.973-9.855,2.875-14.523l-0.267-1.049l0.393-0.871c6.91-4,11.985-10.066,13.239-15.832
		c0.71-3.248,0.167-6.258-1.563-8.699c-3.931-5.541-9.608-6.369-12.644-6.369c-1.348,0-2.7,0.148-4.018,0.445l-1.316,0.295
		l0.063-1.35c0.146-3.109-0.276-7.668-5.582-11.336c-3.354-2.318-7.347-3.541-11.553-3.541c-6.044,0-11.598,2.5-15.23,6.863
		c-2.819,3.379-7.573,5.092-14.127,5.094h-0.001c-11.644,0-25.467-5.313-28.766-6.65L285.407,326.492z"/>
	<path fill="#D1D2D4" d="M389.047,309.562c7.546-4.883,11.546-12.818,7.913-17.693c-3.104-4.164-8.02-4.453-11.688-3.377
		c0.117-2.484-0.377-5.556-3.97-7.796c-5.833-3.629-14.146-2.027-18.57,3.584c-6.465,8.193-27.959,0.5-27.959,0.5l-31.626,40.083
		c0,0,40.508,17.605,71.989,3.818c4.221-1.729,8.307-3.904,12.093-8.281c2.798-3.236,3.597-7.5,1.822-10.838H389.047z"/>
	<g>
		<path fill="#FFFFFF" d="M381.54,235.473c4.841-13.063,2.093-27.748-7.716-31.307c-8.37-3.037-15.127,1.795-18.832,6.371
			c-2.412-3.479-6.447-7.826-13.482-7.826c-11.403,0-20.146,9.346-20.146,20.746c0,16.656-36.653,24.316-36.653,24.316v81.484
			c0,0,71.347-10.395,98.367-55.92c3.746-5.938,6.506-13.369,7.288-21.549C391.016,244.988,387.325,238.514,381.54,235.473"/>
		<path fill="#D1D2D4" d="M283.474,330.687v-83.915l0.982-0.205c0.356-0.076,35.671-7.645,35.671-23.109
			c0-12.326,9.392-21.98,21.381-21.98c5.394,0,9.847,2.318,13.563,7.084c2.428-2.615,7.157-6.58,13.539-6.58
			c1.868,0,3.765,0.346,5.636,1.023c3.708,1.346,6.67,4.219,8.563,8.307c2.965,6.4,3.04,15.355,0.239,23.596
			c5.789,3.52,9.195,10.215,8.547,17.002c-0.758,7.9-3.343,15.537-7.477,22.09c-26.99,45.476-98.514,56.378-99.231,56.482
			L283.474,330.687z M285.946,248.768V327.8c10.127-1.771,72.331-15.758,96.069-55.093c3.819-6.33,6.401-13.518,7.121-21.033
			c0.588-6.158-2.834-12.475-8.312-15.355l-0.961-0.504l0.378-1.02c2.934-7.912,3.144-16.363,0.324-22.447
			c-1.609-3.477-4.088-5.904-7.163-7.021c-1.601-0.58-3.213-0.875-4.793-0.875c-6.412,0-10.987,4.801-12.659,6.863l-1.035,1.281
			l-0.938-1.355c-2.172-3.129-5.829-7.293-12.469-7.293c-10.604,0-18.91,8.568-18.91,19.51
			C322.598,239.531,292.001,247.371,285.946,248.768z"/>
	</g>
	<path fill="#241A16" d="M282.434,331.939v-85.426l0.814-0.174c0.359-0.078,36.188-7.967,36.188-23.99c0-12.221,9.942-22.16,22.163-22.16
		c5.621,0,10.098,2.227,13.652,6.795c3.502-3.791,8.21-5.943,13.099-5.943c2.123,0,4.295,0.398,6.455,1.182
		c3.845,1.396,6.902,4.346,8.844,8.537c3.001,6.479,3.062,15.213,0.188,23.521c5.709,3.404,9.139,10.063,8.803,17.225
		c-0.472,9.955-3.94,16.723-7.62,22.557c-27.576,46.463-100.673,57.602-101.408,57.709L282.434,331.939z M284.496,248.168v81.369
		c9.493-1.635,73.594-14.133,98.771-56.551c3.542-5.621,6.867-12.104,7.317-21.58c0.313-6.687-3.019-12.867-8.487-15.744
		l-0.802-0.42l0.315-0.85c2.981-8.047,3.045-16.559,0.169-22.768c-1.705-3.68-4.358-6.262-7.676-7.467
		c-1.937-0.701-3.871-1.057-5.754-1.057c-6.646,0-10.861,4.322-12.363,6.18l-0.862,1.068l-0.785-1.127
		c-2.077-2.994-5.659-6.975-12.739-6.975c-11.085,0-20.104,9.018-20.104,20.102C321.497,238.787,290.137,246.852,284.496,248.168z"
		/>
	<path fill="#D1D2D4" d="M360.678,247.061c2.794-8.102,1.083-16.916-4.581-19.125c-4.833-1.881-8.729,0.461-10.867,3.299
		c-1.396-2.158-3.601-4.492-7.663-4.492c-6.581,0-11.92,5.729-11.92,12.803c0,10.33-34.663,20.299-34.663,20.299l13.794,45.385
		c0,0,41.188-6.447,56.788-34.684c2.163-3.684,3.958-7.672,4.208-13.365C365.96,252.971,364.017,248.945,360.678,247.061"/>
	<g>
		<path fill="#FFFFFF" d="M261.818,382.742c-14.952,6.307-32.029-4.543-32.029-20.617c0-33.836,53.3-33.748,53.3-33.748
			s53.304-0.088,53.304,33.748c0,16.074-17.266,27.004-32.218,20.699c-3.717,8.045-12.22,13.803-21.135,13.803h0.104
			C274.229,396.626,265.537,390.787,261.818,382.742"/>
		<path fill="#FFFFFF" d="M283.144,397.863h-0.104c-8.825-0.043-17.63-5.559-21.826-13.553c-2.688,0.988-5.49,1.488-8.348,1.488
			h-0.001c-6.199,0-12.362-2.447-16.91-6.715c-4.773-4.477-7.402-10.5-7.402-16.959c0-34.586,52.305-34.982,54.532-34.982
			c0.567,0,13.889,0.049,27.239,4.309c17.862,5.699,27.303,16.307,27.303,30.674c0,13.094-10.998,23.748-24.521,23.748
			c-2.852,0-5.646-0.498-8.323-1.482C300.571,392.457,292.023,397.82,283.144,397.863L283.144,397.863z M262.439,381.14l0.5,1.084
			c3.573,7.73,11.858,13.146,20.151,13.168c8.204-0.021,16.412-5.4,19.963-13.088l0.5-1.084l1.101,0.467
			c2.699,1.139,5.542,1.715,8.45,1.715c12.16,0,22.134-9.545,22.051-21.275c-0.218-31.059-49.938-32.512-52.062-32.512
			c-2.136,0-51.942,1.137-52.071,32.512c-0.022,5.77,2.354,11.152,6.622,15.158c4.094,3.842,9.645,6.045,15.221,6.045
			c0,0,0,0,0.001,0c2.91,0,5.763-0.578,8.474-1.723L262.439,381.14z"/>
	</g>
	<path fill="#241A16" d="M283.146,399.275h-0.108c-9.29-0.043-18.109-5.461-22.267-13.592c-2.72,1.029-5.558,1.551-8.449,1.551
		c-6.315,0-12.615-2.564-17.285-7.037c-4.877-4.668-7.563-10.895-7.563-17.529c0-35.422,53.339-35.83,55.609-35.83
		c2.278,0,55.616,0.408,55.616,35.83c0,13.314-11.377,24.564-24.844,24.566c0,0-0.002,0-0.005,0c-2.89,0-5.727-0.521-8.444-1.551
		C301.251,393.814,292.433,399.232,283.146,399.275L283.146,399.275z M261.797,383.033l0.418,0.91
		c3.576,7.793,12.162,13.25,20.877,13.271c8.712-0.021,17.297-5.479,20.873-13.271l0.419-0.91l0.921,0.393
		c2.736,1.16,5.613,1.75,8.549,1.75c0.003,0,0.003,0,0.003,0c12.353,0,22.787-10.311,22.787-22.508
		c0-33.385-51.362-33.77-53.549-33.77c-2.197,0-53.562,0.385-53.562,33.77c0,6.068,2.463,11.768,6.928,16.043
		c4.292,4.109,10.072,6.465,15.861,6.465c2.939,0,5.817-0.59,8.555-1.75L261.797,383.033z"/>
	<path fill="#D1D2D4" d="M266.753,370.281c-11.469,4.873-24.545-3.846-24.545-16.271c0-26.162,40.881-26.094,40.881-26.094
		s40.884-0.068,40.884,26.094c0,12.426-13.078,21.146-24.548,16.271c-2.852,6.223-9.536,10.406-16.374,10.406h0.082
		C276.294,380.687,269.604,376.503,266.753,370.281"/>
	<g>
		<path fill="#FFFFFF" d="M184.986,235.113c-4.844-13.115-1.874-27.385,7.939-30.961c8.379-3.047,15.134,0.748,18.84,5.342
			c2.417-3.492,6.242-7.273,13.281-7.273c11.412,0,20.66,9.277,20.66,20.725c0,16.723,36.178,24.52,36.178,24.52v81.805
			c0,0-71.396-10.436-98.439-56.145c-3.743-5.959-6.856-12.416-7.291-21.631C175.833,244.68,179.198,238.162,184.986,235.113"/>
		<path fill="#FFFFFF" d="M283.121,330.697l-1.414-0.205c-0.721-0.105-72.295-11.049-99.323-56.738
			c-3.597-5.719-7.002-12.391-7.462-22.201c-0.333-7.041,2.999-13.592,8.557-17.004c-2.771-8.16-2.685-16.723,0.264-23.09
			c1.924-4.15,4.954-7.078,8.763-8.467c2.138-0.775,4.287-1.172,6.39-1.172c4.761,0,9.345,2.063,12.794,5.707
			c3.493-4.398,7.878-6.543,13.36-6.543c12.074,0,21.896,9.852,21.896,21.961c0,15.537,34.852,23.236,35.202,23.311l0.976,0.213
			L283.121,330.697L283.121,330.697z M198.892,204.291c-1.813,0-3.678,0.344-5.543,1.023c-3.179,1.158-5.414,3.637-7.057,7.178
			c-2.797,6.041-2.245,14.557,0.652,22.408l0.377,1.016l-0.96,0.506c-6.492,4.158-9.084,9.09-8.668,15.557
			c0.517,7.98,3.906,14.908,7.241,20.43c24.42,40.422,85.578,53.624,95.713,55.403V248.45c-5.987-1.418-36.124-8.307-36.124-24.434
			c0-10.746-8.767-20.559-19.479-20.559c-6.812,0-10.171,4.184-12.175,7.076l-0.94,1.357l-1.037-1.285
			C209.445,208.809,205.293,204.291,198.892,204.291z"/>
	</g>
	<path fill="#241A16" d="M284.496,331.626l-1.396,0.031c-0.735-0.107-73.619-11.135-101.207-57.623c-3.665-5.807-7.134-12.576-7.603-22.531
		c-0.343-7.16,3.091-13.818,8.8-17.225c-2.872-8.307-2.813-17.041,0.189-23.52c1.94-4.191,4.998-7.141,8.844-8.537
		c2.16-0.783,4.333-1.182,6.454-1.182c4.889,0,9.595,2.152,13.1,5.943c3.554-4.568,8.031-6.795,13.65-6.795
		c12.223,0,22.164,9.939,22.164,22.16c0,16.023,35.827,23.912,36.188,23.99l0.813,0.174v85.114H284.496z M198.579,203.102
		c-1.884,0-3.818,0.355-5.755,1.057c-3.315,1.205-5.971,3.787-7.677,7.467c-2.875,6.209-2.812,14.721,0.17,22.768l0.316,0.85
		l-0.802,0.42c-5.474,2.877-8.805,9.059-8.486,15.744c0.448,9.479,3.774,15.961,7.303,21.555
		c25.197,42.455,89.291,54.943,98.786,56.576V248.17c-5.644-1.316-37.001-9.381-37.001-25.818c0-11.084-9.02-20.102-20.104-20.102
		c-7.079,0-10.661,3.98-12.738,6.975l-0.785,1.127l-0.862-1.068C209.436,207.424,205.222,203.102,198.579,203.102z"/>
	<path fill="#D1D2D4" d="M206.253,247.061c-2.796-8.102-1.083-16.916,4.579-19.125c4.834-1.881,8.729,0.461,10.867,3.299
		c1.395-2.158,3.601-4.492,7.661-4.492c6.583,0,11.921,5.729,11.921,12.803c0,10.33,34.664,20.299,34.664,20.299l-13.794,45.385
		c0,0-41.188-6.447-56.789-34.684c-2.162-3.684-3.959-7.672-4.208-13.365C200.969,252.971,202.912,248.945,206.253,247.061"/>
	<path fill="#FFFFFF" d="M318.48,247.91c0,11.477-15.959,20.777-35.648,20.777c-19.687,0-35.646-9.301-35.646-20.777
		c0-11.475,15.961-20.779,35.646-20.779C302.521,227.131,318.48,236.436,318.48,247.91"/>
	<path fill="#20201D" d="M282.832,269.1c-19.885,0-36.06-9.504-36.06-21.189c0-11.684,16.175-21.191,36.06-21.191
		c19.884,0,36.062,9.508,36.062,21.191C318.892,259.596,302.715,269.1,282.832,269.1z M282.832,227.543
		c-19.429,0-35.234,9.137-35.234,20.367s15.807,20.365,35.234,20.365c19.43,0,35.236-9.135,35.236-20.365
		S302.26,227.543,282.832,227.543z"/>
	<path fill="#20201D" d="M273.466,233.027c0,0-5.734-0.514-5.279,2.947c0.453,3.459,4.169,0.766,4.169,0.766s0.897-0.51,1.709-0.166
		c0.813,0.338,2.818,0.369,2.52-1.205C276.288,233.793,274.233,233.027,273.466,233.027"/>
	<path fill="#20201D" d="M269.798,238.15c-0.649,0-1.778-0.275-2.021-2.121c-0.106-0.826,0.084-1.527,0.571-2.082
		c1.458-1.662,5.158-1.332,5.154-1.332h0.001c0.798,0,3.135,0.826,3.485,2.68c0.119,0.637-0.081,1.045-0.27,1.273
		c-0.323,0.391-0.895,0.605-1.602,0.605h-0.002c-0.429,0-0.882-0.082-1.211-0.221c-0.53-0.227-1.342,0.141-1.349,0.146
		C272.537,237.117,271.096,238.15,269.798,238.15z M272.71,233.412c-0.839,0-2.888,0.105-3.741,1.08
		c-0.328,0.373-0.45,0.842-0.374,1.428c0.167,1.262,0.767,1.406,1.204,1.406c0.858,0,1.963-0.662,2.316-0.92
		c0.062-0.037,0.642-0.363,1.335-0.363c0.276,0,0.536,0.051,0.775,0.15c0.179,0.074,0.509,0.156,0.893,0.156l0,0
		c0.453,0,0.808-0.111,0.968-0.307c0.113-0.137,0.146-0.332,0.095-0.596c-0.247-1.305-2.036-2.008-2.714-2.008
		C273.422,233.438,273.136,233.412,272.71,233.412z"/>
	<path fill="#20201D" d="M256.393,249.029c0,0-4.441,3.664-1.691,5.803c2.757,2.146,3.512-2.377,3.512-2.377s0.28-0.998,1.097-1.324
		c0.817-0.326,2.269-1.713,0.949-2.623C258.942,247.596,256.941,248.488,256.393,249.029"/>
	<path fill="#20201D" d="M256.073,255.822L256.073,255.822c-0.511,0-1.059-0.223-1.625-0.664c-0.688-0.537-1.047-1.207-1.057-1.992
		c-0.031-2.146,2.626-4.361,2.739-4.455c0.408-0.402,1.563-1.008,2.771-1.008c0.611,0,1.147,0.158,1.595,0.465
		c0.653,0.451,0.739,0.994,0.695,1.369c-0.102,0.918-1.094,1.723-1.729,1.977c-0.61,0.246-0.851,1.045-0.854,1.053
		C258.596,252.658,258.046,255.822,256.073,255.822z M258.901,248.527c-0.985,0-1.945,0.527-2.219,0.793
		c-0.051,0.045-2.493,2.086-2.468,3.836c0.007,0.529,0.249,0.973,0.739,1.352c0.418,0.324,0.794,0.49,1.118,0.49
		c1.257,0,1.73-2.584,1.734-2.611c0.022-0.092,0.355-1.24,1.348-1.637c0.457-0.184,1.16-0.781,1.221-1.307
		c0.017-0.141-0.003-0.359-0.352-0.598C259.719,248.633,259.343,248.527,258.901,248.527z"/>
	<path fill="#20201D" d="M299.559,242.316c0,0-3.068-4.873-5.544-2.412c-2.476,2.459,1.914,3.781,1.914,3.781
		s0.952,0.404,1.174,1.258c0.219,0.852,1.411,2.467,2.482,1.273C300.656,245.025,300.025,242.928,299.559,242.316"/>
	<path fill="#20201D" d="M298.767,247.053L298.767,247.053c-0.995,0-1.852-1.188-2.062-2.01c-0.167-0.639-0.932-0.977-0.938-0.98
		c-0.217-0.061-2.494-0.787-2.869-2.287c-0.178-0.713,0.101-1.439,0.826-2.164c0.544-0.539,1.159-0.813,1.831-0.813
		c2.248,0,4.268,3.164,4.353,3.299c0.482,0.629,1.249,2.988-0.016,4.395C299.559,246.863,299.179,247.053,298.767,247.053z
		 M295.555,239.623c-0.453,0-0.861,0.188-1.251,0.574c-0.505,0.502-0.709,0.965-0.607,1.377c0.222,0.891,1.772,1.541,2.354,1.717
		c0.087,0.033,1.184,0.51,1.453,1.547c0.14,0.549,0.747,1.393,1.265,1.393l0,0c0.171,0,0.34-0.094,0.513-0.289
		c0.89-0.99,0.362-2.836-0.048-3.373C298.698,241.725,297.046,239.623,295.555,239.623z"/>
	<path fill="#20201D" d="M281.633,238.615c0,0-5.058,0.531-4.204,4.033s7.517,0,7.517,0s1.398-0.652,1.492-2.287
		C286.537,238.729,282.947,238.34,281.633,238.615"/>
	<path fill="#20201D" d="M279.756,244.615L279.756,244.615c-1.877,0-2.52-1.018-2.729-1.871c-0.23-0.951-0.094-1.799,0.412-2.516
		c1.193-1.695,4.029-2.01,4.148-2.023c0.992-0.213,3.787-0.053,4.834,1.063c0.305,0.32,0.452,0.707,0.427,1.119
		c-0.105,1.855-1.666,2.604-1.729,2.635C285.011,243.078,282.059,244.615,279.756,244.615z M282.595,238.945
		c-0.345,0-0.656,0.025-0.879,0.074c-0.066,0.01-2.628,0.295-3.604,1.686c-0.366,0.521-0.459,1.123-0.281,1.846
		c0.129,0.531,0.471,1.24,1.926,1.24c2.102,0,4.968-1.494,4.998-1.508c0.063-0.029,1.194-0.588,1.271-1.945
		c0.013-0.186-0.054-0.348-0.202-0.506C285.277,239.25,283.786,238.945,282.595,238.945z"/>
	<path fill="#20201D" d="M311.159,248.137c0,0-2.116-4.625-5.162-2.695c-3.048,1.93,2.402,7.119,2.402,7.119
		s1.064,1.121,2.644,0.686C312.622,252.814,311.844,249.291,311.159,248.137"/>
	<path fill="#20201D" d="M310.317,253.758L310.317,253.758c-1.332,0-2.181-0.875-2.216-0.912c-0.137-0.129-3.676-3.533-3.431-6.021
		c0.071-0.73,0.442-1.313,1.104-1.73c0.56-0.355,1.133-0.533,1.707-0.533c2.463,0,3.986,3.266,4.051,3.402
		c0.5,0.84,1.201,3.316,0.633,4.725c-0.203,0.5-0.556,0.832-1.019,0.959C310.875,253.721,310.594,253.758,310.317,253.758z
		 M307.483,245.383c-0.415,0-0.841,0.137-1.267,0.406c-0.442,0.279-0.68,0.645-0.727,1.117c-0.173,1.736,2.245,4.457,3.193,5.357
		c0.02,0.02,0.662,0.672,1.632,0.672h0.001c0.202,0,0.411-0.029,0.614-0.084c0.136-0.039,0.33-0.125,0.47-0.475
		c0.429-1.055-0.131-3.244-0.597-4.029C310.77,248.279,309.417,245.383,307.483,245.383z"/>
	<path fill="#20201D" d="M265.03,245.818c0,0,0.514-3.074,2.82-2.881c2.305,0.188,4.996,1.277,5.254,2.881
		c0.256,1.598-1.73,2.436-4.806,1.92C265.222,247.227,265.29,246.908,265.03,245.818"/>
	<path fill="#20201D" d="M269.996,248.303c-0.548,0-1.143-0.055-1.765-0.158c-2.914-0.484-3.276-0.83-3.568-2.092l-0.032-0.143
		c-0.014-0.053-0.016-0.107-0.006-0.16c0.021-0.137,0.597-3.449,3.26-3.225c2.51,0.207,5.335,1.406,5.627,3.227
		c0.092,0.572-0.049,1.096-0.406,1.516C272.534,247.936,271.43,248.303,269.996,248.303z M265.453,245.811l0.013,0.055
		c0.19,0.828,0.235,1.023,2.901,1.469c1.923,0.318,3.532,0.076,4.109-0.602c0.203-0.236,0.275-0.514,0.22-0.85
		c-0.213-1.336-2.7-2.355-4.88-2.535c-0.061-0.006-0.114-0.008-0.171-0.008C266.053,243.34,265.542,245.387,265.453,245.811z"/>
	<path fill="#20201D" d="M299.638,237.287c0,0,0.511-3.072,2.818-2.881c2.305,0.188,4.997,1.279,5.254,2.881
		c0.256,1.6-1.73,2.438-4.808,1.922C299.831,238.697,299.893,238.379,299.638,237.287"/>
	<path fill="#20201D" d="M304.604,239.771c-0.55,0-1.146-0.053-1.769-0.156c-2.915-0.486-3.278-0.832-3.566-2.096l-0.032-0.139
		c-0.013-0.055-0.014-0.109-0.007-0.162c0.024-0.137,0.577-3.459,3.26-3.223c2.511,0.207,5.335,1.406,5.627,3.225
		c0.095,0.572-0.049,1.098-0.405,1.518C307.14,239.404,306.038,239.771,304.604,239.771z M300.058,237.279l0.015,0.057
		c0.188,0.826,0.232,1.021,2.898,1.465c1.923,0.32,3.534,0.08,4.112-0.6c0.202-0.234,0.273-0.514,0.221-0.85
		c-0.215-1.336-2.701-2.355-4.882-2.535c-0.061-0.004-0.116-0.006-0.171-0.006C300.67,234.811,300.149,236.857,300.058,237.279z"/>
	<path fill="#20201D" d="M256.526,242.352c0,0-1.22-2.871,0.827-3.947c2.052-1.078,4.904-1.605,5.979-0.391
		c1.081,1.215-0.151,2.982-3.02,4.201C257.445,243.434,257.329,243.129,256.526,242.352"/>
	<path fill="#20201D" d="M257.71,243.445c-0.656,0-0.985-0.324-1.369-0.699l-0.103-0.1c-0.04-0.039-0.069-0.086-0.093-0.135
		c-0.472-1.113-0.867-3.479,1.019-4.471c1.353-0.711,2.908-1.137,4.163-1.137c1.029,0,1.829,0.289,2.314,0.838
		c0.427,0.477,0.579,1.051,0.443,1.658c-0.264,1.166-1.578,2.332-3.61,3.193C259.036,243.207,258.259,243.445,257.71,243.445z
		 M256.877,242.117l0.042,0.041c0.358,0.352,0.486,0.465,0.791,0.465c0.419,0,1.147-0.234,2.443-0.785
		c1.733-0.736,2.932-1.74,3.127-2.617c0.078-0.346-0.005-0.652-0.255-0.932c-0.411-0.465-1.149-0.561-1.699-0.561
		c-1.11,0-2.559,0.398-3.78,1.041C256.005,239.58,256.713,241.689,256.877,242.117z"/>
	<path fill="#20201D" d="M285.31,231.975c0,0,1.549-2.705,3.647-1.723c2.093,0.984,4.235,2.939,3.922,4.529
		c-0.32,1.594-2.473,1.684-5.174,0.133C284.999,233.363,285.172,233.086,285.31,231.975"/>
	<path fill="#20201D" d="M291.089,236.439c-1.015,0-2.254-0.402-3.588-1.168c-2.565-1.469-2.786-1.918-2.618-3.205l0.021-0.145
		c0.007-0.053,0.023-0.105,0.053-0.152c0.05-0.086,1.247-2.145,3.076-2.145c0.369,0,0.74,0.086,1.102,0.254
		c2.276,1.072,4.508,3.184,4.149,4.982C293.082,235.865,292.283,236.439,291.089,236.439z M285.71,232.113l-0.01,0.059
		c-0.109,0.842-0.136,1.041,2.21,2.385c1.191,0.684,2.32,1.061,3.18,1.061c0.799,0,1.265-0.309,1.387-0.916
		c0.262-1.32-1.713-3.145-3.694-4.076c-0.248-0.117-0.5-0.176-0.749-0.176C286.826,230.449,285.906,231.799,285.71,232.113z"/>
	<path fill="#20201D" d="M283.769,252.176c-0.052,0-0.104-0.01-0.155-0.031c-0.21-0.084-0.312-0.326-0.226-0.537
		c1.391-3.375-0.777-7.871-0.8-7.916c-0.102-0.203-0.019-0.451,0.188-0.551c0.207-0.098,0.45-0.018,0.553,0.188
		c0.096,0.199,2.354,4.879,0.823,8.594C284.087,252.08,283.933,252.176,283.769,252.176z"/>
	<path fill="#20201D" d="M287.206,252.232c-0.049,0-0.097-0.008-0.144-0.025c-0.215-0.078-0.322-0.314-0.243-0.529
		c3.939-10.635,1.642-15.986,1.619-16.039c-0.095-0.207-0.003-0.451,0.204-0.545c0.206-0.094,0.452,0,0.545,0.205
		c0.104,0.227,2.478,5.674-1.596,16.666C287.529,252.131,287.374,252.232,287.206,252.232z"/>
	<path fill="#20201D" d="M293.258,253.98c-0.083,0-0.168-0.025-0.24-0.076c-0.185-0.133-0.229-0.391-0.094-0.576
		c2.328-3.264,2.597-9.592,2.598-9.656c0.007-0.227,0.161-0.377,0.428-0.396c0.229,0.008,0.403,0.199,0.396,0.428
		c-0.012,0.268-0.278,6.639-2.752,10.104C293.511,253.92,293.386,253.98,293.258,253.98z"/>
	<path fill="#20201D" d="M303.349,261.043c-0.086,0-0.169-0.025-0.242-0.08c-0.184-0.133-0.225-0.391-0.091-0.576
		c3.012-4.131,3.432-9.51,3.438-9.563c0.015-0.229,0.198-0.387,0.438-0.383c0.227,0.018,0.396,0.215,0.381,0.441
		c-0.016,0.229-0.436,5.664-3.59,9.99C303.602,260.984,303.477,261.043,303.349,261.043z"/>
	<path fill="#20201D" d="M299.26,257.324c-0.079,0-0.157-0.023-0.228-0.07c-0.188-0.125-0.242-0.381-0.115-0.57
		c4.702-7.102,3.589-17.324,3.578-17.426c-0.025-0.227,0.135-0.432,0.361-0.457c0.241-0.029,0.43,0.137,0.456,0.361
		c0.05,0.43,1.16,10.619-3.71,17.977C299.524,257.258,299.392,257.324,299.26,257.324z"/>
	<path fill="#20201D" d="M277.829,252.424c-0.146,0-0.285-0.076-0.361-0.213c-3.263-5.896-4.595-15.285-4.65-15.682
		c-0.029-0.227,0.127-0.434,0.353-0.465c0.243-0.027,0.435,0.127,0.466,0.352c0.013,0.096,1.367,9.635,4.555,15.396
		c0.108,0.199,0.038,0.449-0.161,0.559C277.964,252.406,277.894,252.424,277.829,252.424z"/>
	<path fill="#20201D" d="M271.237,254.697c-0.095,0-0.188-0.031-0.268-0.1c-2.449-2.096-2.612-6.592-2.62-6.781
		c-0.005-0.229,0.173-0.418,0.399-0.426c0.221,0.014,0.418,0.172,0.425,0.4c0.002,0.041,0.161,4.322,2.332,6.184
		c0.174,0.148,0.19,0.406,0.044,0.578C271.469,254.65,271.353,254.697,271.237,254.697z"/>
	<path fill="#20201D" d="M263.178,260.258c-0.073,0-0.149-0.02-0.217-0.063c-3.571-2.225-5.084-7.41-5.146-7.631
		c-0.063-0.219,0.063-0.447,0.282-0.508c0.211-0.066,0.445,0.064,0.508,0.283c0.017,0.049,1.491,5.102,4.79,7.156
		c0.193,0.121,0.252,0.375,0.133,0.566C263.451,260.189,263.315,260.258,263.178,260.258z"/>
	<path fill="#20201D" d="M267.365,257.17c-0.088,0-0.178-0.029-0.254-0.088c-3.714-2.914-6.577-14.109-6.694-14.584
		c-0.058-0.219,0.076-0.443,0.298-0.5c0.217-0.061,0.443,0.078,0.499,0.299c0.028,0.113,2.914,11.396,6.406,14.137
		c0.179,0.141,0.212,0.4,0.069,0.578C267.607,257.117,267.487,257.17,267.365,257.17z"/>
	<path fill="#FFFFFF" d="M259.015,268.688c-16.881-7.166-36.094,4.512-36.093,22.783c0,38.462,60.172,38.36,60.172,38.36
		s60.17,0.102,60.17-38.36c0-18.271-19.521-29.949-36.401-22.783c-4.196-9.15-13.908-16.438-23.97-16.438h0.26
		C273.089,252.25,263.211,259.537,259.015,268.688"/>
	<path fill="#FFFFFF" d="M317.316,267.787c-3.43,0-6.783,0.686-9.971,2.039l-1.105,0.467l-0.499-1.09
		c-4.219-9.195-13.563-15.66-22.725-15.717c-9.102,0.057-18.729,6.666-22.878,15.717l-0.501,1.09l-1.104-0.467
		c-3.187-1.354-6.529-2.039-9.938-2.039c-6.288,0-12.504,2.432-17.053,6.67c-4.763,4.441-7.385,10.482-7.385,17.014
		c0,28.911,35.063,35.31,51.126,36.722c-9.81-3.725-25.38-11.545-25.38-23.719c0-12.516,10.616-21.296,19.928-16.387
		c2.306-6.239,7.696-10.436,13.224-10.472c-0.024,0-0.048-0.004-0.072-0.004h0.144c-0.023,0-0.048,0.004-0.07,0.004
		c5.525,0.037,10.995,4.232,13.3,10.472c9.312-4.909,19.932,3.871,19.932,16.387c0,12.174-15.572,19.994-25.385,23.719
		c16.064-1.412,51.126-7.811,51.126-36.722C342.028,278.412,330.942,267.787,317.316,267.787z"/>
	<path fill="#FFFFFF" d="M317.316,265.316c-3.373,0-6.677,0.604-9.844,1.797c-4.799-9.43-14.62-15.977-24.319-16.096l-0.26-0.002
		v0.002c-9.63,0.115-19.729,6.803-24.487,16.096c-3.163-1.193-6.458-1.797-9.811-1.797c-6.906,0-13.735,2.674-18.737,7.334
		c-5.27,4.912-8.17,11.594-8.17,18.82c0,39.145,58.896,39.596,61.405,39.596h0.006c2.506,0,61.399-0.451,61.399-39.596
		C344.5,277.047,332.304,265.316,317.316,265.316z M290.902,328.191c-4.514,1.713-7.808,2.559-7.808,2.559s-3.296-0.846-7.811-2.559
		c-16.063-1.412-51.126-7.809-51.126-36.721c0-6.531,2.622-12.572,7.385-17.014c4.549-4.238,10.765-6.67,17.053-6.67
		c3.407,0,6.751,0.686,9.938,2.039l1.104,0.467l0.501-1.09c4.149-9.051,13.776-15.66,22.878-15.717
		c9.16,0.057,18.506,6.521,22.725,15.717l0.499,1.09l1.105-0.467c3.188-1.354,6.541-2.039,9.971-2.039
		c13.626,0,24.712,10.625,24.712,23.684C342.028,320.382,306.967,326.779,290.902,328.191z"/>
	<path fill="#B4292E" d="M282.983,277.611c0.024,0,0.048,0.004,0.072,0.004c0.022,0,0.047-0.004,0.07-0.004H282.983z"/>
	<path fill="#D1D2D4" d="M316.287,304.474c0-12.516-10.62-21.296-19.932-16.387c-2.305-6.239-7.773-10.436-13.3-10.472
		c-5.526,0.037-10.918,4.232-13.224,10.472c-9.312-4.909-19.928,3.871-19.928,16.387c0,12.174,15.57,19.994,25.38,23.719
		c4.33,0.381,7.296,0.402,7.806,0.402h0.01c0.51,0,3.473-0.021,7.803-0.402C300.714,324.468,316.287,316.646,316.287,304.474z"/>
	<path fill="#FFFFFF" d="M283.09,328.595c-0.51,0-3.476-0.021-7.806-0.402c4.515,1.713,7.811,2.559,7.811,2.559
		s3.294-0.846,7.808-2.559c-4.33,0.381-7.293,0.402-7.803,0.402H283.09z"/>
	<path fill="#241A16" d="M283.099,331.658h-0.006c-0.647,0-15.936-0.055-31.263-4.982c-20.395-6.555-31.176-18.723-31.176-35.196
		c0-7.431,3.008-14.4,8.468-19.627c5.23-5.008,12.288-7.881,19.359-7.881c3.275,0,6.489,0.598,9.565,1.775
		c4.605-9.111,14.45-15.219,24.84-15.322v-0.002l0.266,0.002c10.313,0.111,20.419,6.35,24.982,15.322
		c3.078-1.178,6.291-1.775,9.567-1.775c15.086,0,27.827,12.598,27.827,27.508C345.532,331.201,285.649,331.658,283.099,331.658z
		 M248.483,266.031c-6.547,0-13.084,2.664-17.935,7.309c-5.053,4.834-7.833,11.275-7.833,18.139c0,37.688,57.909,38.12,60.374,38.12
		h0.01c2.465,0,60.374-0.434,60.374-38.12c0-13.795-11.802-25.447-25.77-25.447c-3.323,0-6.576,0.664-9.672,1.979l-0.921,0.393
		l-0.417-0.91c-4.03-8.785-13.768-14.957-23.679-15.012c-9.974,0.055-19.432,6.086-23.521,15.012l-0.418,0.91l-0.923-0.393
		C255.059,266.695,251.806,266.031,248.483,266.031z"/>
</g>
</svg>
