<?xml version="1.0" encoding="utf-8"?>
<!-- Generator: Adobe Illustrator 16.0.0, SVG Export Plug-In . SVG Version: 6.00 Build 0)  -->
<!DOCTYPE svg PUBLIC "-//W3C//DTD SVG 1.1//EN" "http://www.w3.org/Graphics/SVG/1.1/DTD/svg11.dtd">
<svg version="1.1" id="Layer_1" xmlns="http://www.w3.org/2000/svg" xmlns:xlink="http://www.w3.org/1999/xlink" x="0px" y="0px"
	 width="566.93px" height="566.929px" viewBox="0 0 566.93 566.929" enable-background="new 0 0 566.93 566.929"
	 xml:space="preserve">
<g>
	<path fill="#FFFFFF" d="M251.832,402.435l-0.017,0.01c15.035-18.293,8.632-29.561,8.632-29.561
		c-1.025,1.617-3.235,2.355-3.235,2.355c8.938-26.621-5.343-39.395-5.343-39.395c-0.145,2.504-2.64,3.531-2.64,3.531
		c-2.244-28.082-16.667-36.59-16.667-36.59c0.443,2.203-1.612,2.502-1.612,2.502c-5.915-24.104-24.008-30.104-24.008-30.104
		c1.177,2.941-0.288,4.705-0.288,4.705c-12.233-22.479-26.646-21.867-26.646-21.867c1.918,2.199,0.303,4.699,0.303,4.699
		c-13.986-13.943-28.688-9.813-28.688-9.813c2.797,2.791,2.216,4.852,2.216,4.852c-13.104-11.307-38.532-5.828-38.532-5.828
		c8.969,2.486,9.134,12.045,9.88,22.189c0.751,10.141,5.459,13.072,11.051,17.477c5.596,4.401,5.745,8.075,5.745,8.075
		c-3.676-1.027-7.054,1.48-7.054,1.48c2.522,16.906,20.914,25.848,20.914,25.848c-5.153-2.783-8.672,0.16-8.672,0.16
		c4.865,12.197,24.287,22.467,24.287,22.467c-4.998,1.479-4.77,3.305-4.77,3.305c9.665,20.059,31.855,22.832,31.855,22.832
		c-3.381,0.439-5.142,2.797-5.142,2.797c6.045,11.316,26.342,14.521,26.342,14.521c-6.614,1.336-5.976,3.637-5.976,3.637
		c5.653,7.393,17.951,9.559,26.082,10.158l-0.758,0.281c-1.256,1.863-1.987,4.104-1.987,6.514c0,6.434,5.213,11.648,11.646,11.648
		c6.429,0,11.646-5.217,11.646-11.648C260.398,408.308,256.769,403.787,251.832,402.435 M248.754,417.556
		c-2.144,0-3.884-1.736-3.884-3.883c0-2.145,1.74-3.885,3.884-3.885c2.142,0,3.879,1.74,3.879,3.885
		C252.633,415.82,250.895,417.556,248.754,417.556"/>
	<path fill="#241A16" d="M247.702,407.791c-0.393,0-0.714-0.314-0.725-0.709c-1.285-58.027-36.507-96.902-65.825-119.297
		c-31.822-24.301-63.771-34.992-64.089-35.098c-0.38-0.123-0.584-0.533-0.462-0.914c0.128-0.381,0.531-0.584,0.917-0.461
		c0.316,0.104,32.464,10.857,64.479,35.297c29.585,22.588,65.129,61.818,66.429,120.439c0.01,0.4-0.31,0.73-0.709,0.742H247.702
		L247.702,407.791z"/>
	<path fill="#241A16" d="M158.735,279.346c-10.461,0-20.123-8.838-20.631-9.309c-0.292-0.271-0.308-0.73-0.037-1.023
		c0.276-0.293,0.732-0.309,1.024-0.037c0.147,0.141,15.021,13.721,27.088,7.025c0.35-0.189,0.79-0.07,0.983,0.281
		c0.192,0.35,0.068,0.789-0.281,0.984C164.211,278.752,161.447,279.346,158.735,279.346"/>
	<path fill="#241A16" d="M180.322,286.977h-0.024c-0.398-0.017-0.714-0.351-0.699-0.75c0.611-18.199-16.431-22.348-17.154-22.516
		c-0.391-0.09-0.631-0.479-0.544-0.867c0.089-0.389,0.476-0.629,0.866-0.547c0.188,0.045,18.932,4.57,18.278,23.979
		C181.031,286.666,180.71,286.977,180.322,286.977"/>
	<path fill="#241A16" d="M183.453,303.46c-12.748,0-26.72-10.01-27.494-10.571c-0.322-0.236-0.396-0.688-0.161-1.013
		c0.234-0.326,0.688-0.396,1.012-0.162c0.243,0.179,24.571,17.607,37.483,6.605c0.306-0.258,0.761-0.225,1.021,0.084
		c0.261,0.303,0.224,0.76-0.081,1.018C191.795,302.351,187.688,303.46,183.453,303.46"/>
	<path fill="#241A16" d="M209.576,314.365c-0.051,0-0.1-0.006-0.147-0.016c-0.393-0.084-0.645-0.467-0.562-0.857
		c3.931-18.469-13.697-34.654-13.874-34.816c-0.298-0.268-0.321-0.725-0.053-1.02c0.268-0.299,0.728-0.322,1.021-0.053
		c0.185,0.166,18.424,16.914,14.321,36.188C210.214,314.132,209.912,314.365,209.576,314.365"/>
	<path fill="#241A16" d="M202.844,339.109c-17.384,0-33.445-14.324-33.671-14.527c-0.293-0.271-0.315-0.727-0.05-1.025
		c0.273-0.293,0.729-0.314,1.024-0.047c0.305,0.275,30.604,27.287,52.189,5.924c0.284-0.277,0.741-0.275,1.021,0.008
		c0.282,0.283,0.28,0.742-0.005,1.023C216.922,336.828,209.777,339.109,202.844,339.109"/>
	<path fill="#241A16" d="M236.189,354.777c-0.133,0-0.264-0.035-0.381-0.111c-0.34-0.207-0.446-0.656-0.235-0.994
		c10.563-17.049-0.946-35.455-1.063-35.639c-0.216-0.336-0.117-0.783,0.221-1c0.335-0.209,0.784-0.121,1,0.223
		c0.121,0.191,12.11,19.363,1.074,37.176C236.667,354.656,236.432,354.777,236.189,354.777"/>
	<path fill="#241A16" d="M229.098,380.802c-15.071,0-28.244-13.75-28.416-13.934c-0.276-0.289-0.265-0.75,0.024-1.023
		c0.292-0.27,0.751-0.26,1.025,0.031c0.222,0.234,22.259,23.205,41.216,8.623c0.319-0.24,0.771-0.184,1.013,0.133
		c0.245,0.318,0.188,0.771-0.132,1.018C238.967,379.386,233.938,380.802,229.098,380.802"/>
	<path fill="#241A16" d="M246.83,394.708c-0.135,0-0.267-0.037-0.386-0.113c-0.338-0.211-0.444-0.656-0.229-0.998
		c8.711-13.924,4.929-25.225,4.892-25.334c-0.132-0.379,0.063-0.791,0.442-0.922c0.379-0.137,0.789,0.064,0.921,0.443
		c0.174,0.482,4.075,12.033-5.024,26.58C247.305,394.585,247.07,394.708,246.83,394.708"/>
	<path fill="#241A16" d="M248.754,418.281c-2.541,0-4.605-2.066-4.605-4.607s2.064-4.607,4.605-4.607
		c2.536,0,4.604,2.066,4.604,4.607S251.29,418.281,248.754,418.281 M248.754,410.515c-1.74,0-3.159,1.414-3.159,3.158
		c0,1.74,1.419,3.156,3.159,3.156c1.741,0,3.155-1.416,3.155-3.156C251.909,411.929,250.495,410.515,248.754,410.515"/>
	<path fill="#241A16" d="M248.754,426.044c-6.822,0-12.373-5.549-12.373-12.371c0-2.199,0.578-4.33,1.679-6.221
		c-8.747-0.836-19.545-3.342-24.862-10.293c-0.057-0.07-0.098-0.154-0.125-0.246c-0.03-0.113-0.167-0.738,0.314-1.523
		c0.535-0.873,1.614-1.607,3.224-2.197c-5.979-1.387-19.066-5.346-23.844-14.289c-0.134-0.246-0.109-0.553,0.057-0.773
		c0.057-0.072,0.998-1.309,2.794-2.209c-6.392-1.539-21.929-6.799-29.577-22.67c-0.037-0.07-0.058-0.148-0.068-0.227
		c-0.045-0.361-0.037-2.074,3.715-3.555c-4.65-2.662-19.001-11.555-23.187-22.041c-0.117-0.289-0.034-0.625,0.206-0.824
		c0.105-0.086,1.769-1.438,4.45-1.527c-5.707-3.809-15.147-11.791-16.946-23.814c-0.035-0.264,0.071-0.529,0.289-0.689
		c0.133-0.1,3.03-2.211,6.538-1.82c-0.434-1.297-1.679-3.78-5.245-6.586l-1.165-0.914c-5.066-3.936-9.439-7.333-10.157-17.078
		l-0.12-1.674c-0.672-9.477-1.251-17.658-9.235-19.869c-0.317-0.088-0.54-0.389-0.529-0.721c0.012-0.33,0.246-0.617,0.572-0.686
		c1.021-0.221,24.313-5.086,37.806,4.902c-0.251-0.703-0.771-1.633-1.847-2.705c-0.185-0.184-0.257-0.449-0.188-0.697
		c0.063-0.246,0.255-0.443,0.504-0.514c0.148-0.041,14.741-3.938,28.642,9.27c0.228-0.766,0.317-1.92-0.608-2.984
		c-0.182-0.209-0.225-0.504-0.117-0.76c0.11-0.256,0.356-0.426,0.635-0.438c0.567-0.016,14.466-0.352,26.606,20.979
		c0.147-0.674,0.163-1.631-0.315-2.826c-0.104-0.26-0.049-0.561,0.146-0.766c0.193-0.205,0.487-0.283,0.755-0.189
		c0.185,0.059,18.135,6.264,24.28,29.818c0.1-0.068,0.191-0.156,0.268-0.268c0.185-0.266,0.23-0.645,0.135-1.115
		c-0.058-0.283,0.058-0.568,0.292-0.736c0.23-0.162,0.54-0.176,0.788-0.031c0.591,0.35,14.379,8.783,16.918,35.988
		c0.579-0.461,1.229-1.227,1.296-2.35c0.018-0.275,0.188-0.521,0.446-0.627c0.26-0.105,0.552-0.055,0.761,0.129
		c0.142,0.131,13.943,12.859,6.071,38.533c0.517-0.332,1.056-0.777,1.412-1.34c0.137-0.217,0.346-0.363,0.629-0.336
		c0.255,0.006,0.488,0.145,0.611,0.367c0.268,0.469,6.29,11.563-8.026,29.539c4.803,1.775,8.068,6.402,8.068,11.604
		C261.119,420.496,255.572,426.044,248.754,426.044 M239.57,407.757c-1.139,1.77-1.737,3.813-1.737,5.916
		c0,6.023,4.898,10.922,10.921,10.922c6.021,0,10.918-4.896,10.918-10.922c0-4.877-3.254-9.186-7.931-10.51
		c-0.202-0.023-0.389-0.125-0.511-0.301c-0.192-0.266-0.184-0.629,0.026-0.879c11.982-14.582,10.045-24.625,8.98-27.729
		c-1.198,1.127-2.717,1.645-2.795,1.672c-0.265,0.092-0.551,0.021-0.743-0.178c-0.194-0.193-0.262-0.48-0.175-0.738
		c7.344-21.877-1.351-34.322-4.258-37.691c-0.78,1.885-2.667,2.686-2.766,2.725c-0.21,0.09-0.456,0.07-0.652-0.051
		c-0.196-0.119-0.324-0.33-0.346-0.559c-1.825-22.896-11.947-32.658-15.262-35.27c-0.077,0.262-0.192,0.504-0.349,0.725
		c-0.648,0.92-1.721,1.096-1.841,1.115c-0.389,0.07-0.716-0.184-0.809-0.545c-4.814-19.623-17.971-27.101-22.205-29.04
		c0.4,2.408-0.771,3.857-0.831,3.93c-0.151,0.184-0.412,0.281-0.627,0.254c-0.239-0.021-0.451-0.162-0.565-0.373
		c-9.72-17.855-20.889-20.879-24.659-21.387c0.687,1.717,0.088,3.455-0.438,4.27c-0.121,0.184-0.313,0.305-0.532,0.33
		c-0.216,0.012-0.436-0.057-0.588-0.209c-11.245-11.213-23.071-10.453-26.79-9.867c2.059,2.58,1.552,4.496,1.525,4.586
		c-0.068,0.238-0.252,0.426-0.489,0.496c-0.231,0.07-0.488,0.016-0.681-0.143c-10.281-8.871-28.652-7.113-35.359-6.109
		c6.594,3.387,7.176,11.576,7.785,20.199l0.119,1.668c0.672,9.102,4.612,12.168,9.603,16.047l1.173,0.916
		c5.791,4.555,6.013,8.451,6.021,8.615c0.007,0.232-0.094,0.451-0.274,0.596c-0.183,0.148-0.413,0.195-0.646,0.131
		c-2.62-0.732-5.157,0.574-6.071,1.133c2.479,14.709,17.46,23.268,20.061,24.648c0.138,0.066,0.271,0.137,0.41,0.213
		c0.347,0.188,0.479,0.615,0.302,0.967c-0.182,0.355-0.611,0.492-0.963,0.32c-0.063-0.031-0.235-0.115-0.505-0.256
		c-3.451-1.65-5.983-0.557-6.954,0.027c5.059,11.588,23.545,21.465,23.732,21.563c0.261,0.141,0.412,0.42,0.382,0.715
		c-0.03,0.293-0.234,0.539-0.515,0.623c-3.174,0.936-4.1,2.023-4.236,2.479c9.423,19.289,30.989,22.217,31.206,22.246
		c0.36,0.045,0.633,0.354,0.635,0.715c0,0.365-0.269,0.672-0.631,0.723c-2.271,0.293-3.754,1.559-4.354,2.174
		c6.093,10.514,25.377,13.678,25.574,13.711c0.344,0.055,0.603,0.35,0.612,0.693c0.005,0.355-0.239,0.658-0.584,0.73
		c-4.665,0.941-5.312,2.293-5.396,2.678c5.706,7.209,18.347,9.166,25.414,9.688c0.34,0.025,0.615,0.281,0.663,0.621
		c0.049,0.338-0.146,0.662-0.466,0.781L239.57,407.757z"/>
	<path fill="#FFFFFF" d="M437.897,241.059c8.151-5.521,10.86-15.545,10.86-15.545c-11.809,4.922-11.368-8.908-27.639-6
		c0,0,5.225-1.945,5.946-5.291c0,0-8.903-5.377-18.822-2.111c0,0,2.942-1.49,2.425-3.432c0,0-5.14-4.492-15.304-0.832
		c0,0,11.225-5.764,13.979-17.313c0,0-5.808,2.955-8.773,0.283c0,0,13.366-5.963,15.719-20.582c0,0-4.536-2.076-8.541-0.049
		c0,0,11.026-7.625,10.228-24.191c-0.795-16.564,5.211-18.596,5.211-18.596s-20.939-9.967-36.25-1.666c0,0-1.249-1.463,1.174-4.885
		c0,0-9.959-2.477-21.079,8.791c0,0-1.915-3.357,0.433-6.264c0,0-11.623,1.484-20.177,11.141c0,0-3.01-0.992-0.452-4.605
		c0,0-12.079,1.729-21.922,13.615c0,0-2.387-3.115-0.345-5.383c0,0-10.03,3.186-15.856,12.771c2.112-5.244-3.1-14.523-6.592-21.809
		c-3.488-7.287-0.635-11.455,4.565-16.715c0,0-19.688,6.271-24.25,19.24c0,0-1.216-1.191-0.391-4.219c0,0-11.76,2.957-15.89,18.09
		c0,0-2.098-1.08-1.647-3.357c0,0-10.171,5.275-9.716,25.596c0,0-1.715-0.641-2.061-3.125c0,0-10.096,11.285-4.646,30.229
		c0,0-1.537,0.609-2.104-1.084c0,0-6.576,11.557,2.975,31.793c0,0-2.131,0.27-3.219-1.393c0,0-4.79,14.443,11.882,29.258
		c0,0-1.811,0.361-3.153-0.348c0,0,1.718,14.498,18.549,21.309h-0.014c-2.952,0.33-5.599,1.668-7.594,3.666
		c-2.315,2.313-3.747,5.506-3.747,9.043c0,7.063,5.727,12.787,12.795,12.787c6.854,0,12.452-5.394,12.777-12.168l-0.003-0.025
		c10.858,14.869,27.703,15.561,27.703,15.561c-1.123-1.262-1.212-3.297-1.212-3.297c20.32,13.973,34.56,5.004,34.56,5.004
		c-2.079-0.727-2.346-3.084-2.346-3.084c24.25,4.893,34.919-5.23,34.919-5.23c-1.971-0.157-1.723-1.967-1.723-1.967
		c21.782,0.832,31.223-12.996,31.223-12.996c-2.766,0.289-3.903-1.375-3.903-1.375c21.939-4.893,24.906-17.207,24.906-17.207
		c-2.321,1.086-4.047-0.887-4.047-0.887c15.159-8.434,15.218-21.848,15.218-21.848C439.493,242.051,437.897,241.059,437.897,241.059
		 M274.456,291.35c-2.355,0-4.267-1.908-4.267-4.261c0-2.358,1.91-4.268,4.267-4.268c2.354,0,4.266,1.908,4.266,4.268
		C278.721,289.441,276.81,291.35,274.456,291.35"/>
	<path fill="#241A16" d="M336.202,308.716c-5.667,0-12.968-1.535-21.282-6.84c0.146,0.363,0.342,0.721,0.607,1.021
		c0.212,0.238,0.262,0.58,0.125,0.867c-0.138,0.289-0.397,0.461-0.754,0.455c-0.245-0.01-24.982-1.297-34.086-26.936
		c-0.147-0.412,0.069-0.865,0.482-1.014c0.416-0.145,0.869,0.074,1.016,0.484c7.444,20.964,25.746,24.982,31.139,25.714
		c-0.464-1.146-0.518-2.24-0.52-2.307c-0.019-0.299,0.143-0.584,0.406-0.73c0.266-0.148,0.584-0.131,0.835,0.041
		c16.291,11.197,28.668,7.293,32.474,5.6c-1.282-1.156-1.489-2.846-1.5-2.936c-0.029-0.252,0.065-0.504,0.254-0.674
		c0.188-0.174,0.441-0.238,0.694-0.195c19.34,3.906,29.951-1.959,33.156-4.208c-0.156-0.121-0.281-0.252-0.378-0.371
		c-0.659-0.822-0.545-1.832-0.526-1.944c0.056-0.404,0.368-0.666,0.818-0.689c17.263,0.682,26.679-8.174,29.564-11.451
		c-1.994-0.334-2.891-1.607-2.938-1.676c-0.145-0.217-0.178-0.492-0.078-0.738c0.095-0.244,0.309-0.428,0.564-0.482
		c16.929-3.779,22.314-12.1,23.801-15.318c-1.538-0.004-2.815-0.848-3.367-1.479c-0.155-0.18-0.224-0.42-0.184-0.658
		c0.039-0.238,0.189-0.443,0.397-0.559c11.806-6.57,14.2-16.332,14.685-19.842c-2.537,0.975-3.958,0.172-4.133,0.064
		c-0.229-0.145-0.369-0.393-0.374-0.66c-0.005-0.27,0.125-0.521,0.349-0.674c5.954-4.033,8.938-10.623,10.03-13.578
		c-5.158,1.588-8.065-0.52-11.115-2.748c-3.34-2.439-7.132-5.195-15.105-3.777c-0.409,0.082-0.799-0.174-0.907-0.57
		c-0.108-0.398,0.102-0.811,0.487-0.957c0.048-0.018,4.22-1.605,5.277-4.16c-2.042-1.053-9.534-4.408-17.627-1.742
		c-0.381,0.125-0.82-0.066-0.979-0.451c-0.16-0.385,0.005-0.822,0.373-1.014c0.568-0.291,2.064-1.291,2.048-2.287
		c-1.04-0.754-5.763-3.592-14.294-0.521c-0.398,0.148-0.831-0.043-1.003-0.428c-0.165-0.385-0.005-0.834,0.368-1.025
		c0.101-0.055,9.917-5.211,13.131-15.238c-2.083,0.752-5.763,1.609-8.098-0.492c-0.199-0.18-0.294-0.449-0.251-0.715
		c0.042-0.268,0.214-0.492,0.46-0.604c0.127-0.057,12.617-5.797,15.149-19.35c-1.276-0.436-4.468-1.277-7.286,0.156
		c-0.37,0.182-0.83,0.057-1.041-0.303c-0.215-0.359-0.116-0.82,0.226-1.061c0.108-0.076,10.656-7.6,9.888-23.498
		c-0.583-12.139,2.473-16.787,4.359-18.484c-4.769-1.955-21.605-7.963-34.225-1.119c-0.328,0.182-0.741,0.105-0.986-0.182
		c-0.15-0.18-1.306-1.695,0.441-4.783c-2.871-0.215-10.688,0.131-19.175,8.73c-0.173,0.176-0.43,0.266-0.67,0.23
		c-0.247-0.033-0.465-0.18-0.588-0.395c-0.072-0.133-1.536-2.758-0.443-5.543c-3.47,0.807-11.658,3.375-18.012,10.555
		c-0.212,0.238-0.538,0.326-0.847,0.227c-0.528-0.174-1.521-0.768-1.887-1.875c-0.231-0.701-0.183-1.484,0.141-2.334
		c-3.589,0.941-12.367,4.031-19.771,12.969c-0.155,0.188-0.429,0.291-0.627,0.291c-0.241-0.006-0.469-0.121-0.616-0.313
		c-0.688-0.898-1.547-2.658-1.271-4.385c-3.094,1.385-9.484,4.902-13.616,11.701c-0.229,0.377-0.729,0.492-1.093,0.268
		c-0.377-0.229-0.494-0.717-0.268-1.092c5.915-9.73,15.876-12.984,16.296-13.117c0.338-0.104,0.717,0.027,0.91,0.328
		c0.192,0.301,0.162,0.695-0.075,0.963c-1.019,1.127-0.594,2.58-0.144,3.494c9.774-11.225,21.207-12.977,21.702-13.047
		c0.316-0.055,0.626,0.103,0.791,0.373c0.165,0.27,0.154,0.613-0.029,0.875c-0.739,1.043-1.021,1.918-0.818,2.531
		c0.088,0.275,0.276,0.479,0.453,0.615c8.6-9.348,19.767-10.871,20.246-10.932c0.312-0.043,0.636,0.115,0.794,0.4
		c0.158,0.283,0.127,0.635-0.077,0.887c-1.261,1.563-1.068,3.299-0.761,4.363c10.959-10.496,20.564-8.268,20.981-8.16
		c0.253,0.063,0.461,0.246,0.555,0.494c0.091,0.244,0.053,0.523-0.099,0.736c-1.138,1.607-1.358,2.674-1.345,3.283
		c15.373-7.607,35.262,1.684,36.115,2.09c0.292,0.141,0.471,0.443,0.451,0.766c-0.019,0.324-0.231,0.602-0.539,0.707
		c-0.04,0.018-5.42,2.234-4.673,17.807c0.57,11.805-4.64,19.139-7.955,22.574c3.035-0.25,5.658,0.908,5.809,0.979
		c0.322,0.148,0.509,0.496,0.452,0.85c-1.979,12.299-11.367,18.57-14.873,20.514c2.707,0.982,6.736-1.025,6.782-1.049
		c0.278-0.143,0.608-0.107,0.854,0.084c0.241,0.191,0.354,0.506,0.28,0.809c-1.745,7.314-6.698,12.334-10.309,15.143
		c7.379-1.172,11.196,2.051,11.384,2.219c0.117,0.102,0.204,0.242,0.245,0.393c0.211,0.787,0.031,1.496-0.317,2.102
		c8.786-1.5,16.023,2.762,16.359,2.965c0.29,0.176,0.438,0.516,0.368,0.85c-0.356,1.645-1.608,2.963-2.917,3.932
		c6.064-0.068,9.521,2.383,12.375,4.467c3.231,2.361,5.8,4.225,11.146,1.988c0.281-0.117,0.604-0.061,0.83,0.137
		c0.229,0.199,0.322,0.514,0.242,0.807c-0.105,0.391-2.509,9.037-9.532,14.768c0.569-0.104,1.287-0.342,2.15-0.824
		c0.244-0.141,0.549-0.139,0.79,0.01c0.244,0.145,0.392,0.408,0.392,0.689c-0.003,0.551-0.229,13.365-14.59,21.938
		c0.561,0.297,1.368,0.502,2.284,0.07c0.271-0.131,0.601-0.09,0.842,0.104c0.236,0.193,0.338,0.506,0.271,0.805
		c-0.123,0.506-3.175,12.217-23.814,17.395c0.486,0.184,1.14,0.299,1.957,0.211c0.327-0.023,0.608,0.117,0.767,0.385
		c0.159,0.264,0.147,0.598-0.027,0.855c-0.093,0.137-9.38,13.373-30.025,13.373c-0.293,0-0.591,0-0.886-0.006
		c0.005,0.006,0.013,0.016,0.021,0.027c0.15,0.186,0.42,0.293,0.795,0.325c0.314,0.025,0.585,0.229,0.688,0.527
		c0.104,0.293,0.023,0.625-0.201,0.84c-0.442,0.42-10.85,10.003-34.308,5.688c0.266,0.502,0.707,1.041,1.447,1.297
		c0.287,0.104,0.494,0.361,0.528,0.662c0.033,0.307-0.106,0.602-0.368,0.764C348.623,305.859,343.932,308.716,336.202,308.716"/>
	<path fill="#241A16" d="M281.563,277.816c-0.049,0-0.098-0.004-0.147-0.012c-25.117-4.691-27.717-24.26-27.738-24.457
		c-0.035-0.293,0.098-0.584,0.338-0.75c0.243-0.168,0.555-0.189,0.823-0.049c0.234,0.127,0.494,0.209,0.756,0.264
		c-15.096-14.488-10.807-28.127-10.608-28.719c0.095-0.289,0.35-0.498,0.653-0.539c0.314-0.037,0.599,0.1,0.768,0.355
		c0.333,0.512,0.813,0.777,1.257,0.914c-8.776-19.602-2.643-30.799-2.37-31.273c0.158-0.273,0.457-0.422,0.769-0.398
		c0.313,0.031,0.578,0.242,0.676,0.541c0.077,0.227,0.176,0.395,0.295,0.496c-4.853-18.506,4.693-29.457,5.108-29.92
		c0.206-0.229,0.526-0.326,0.823-0.23c0.299,0.088,0.515,0.344,0.555,0.65c0.087,0.602,0.262,1.066,0.466,1.424
		c0.16-19.082,9.735-24.275,10.157-24.49c0.275-0.139,0.604-0.111,0.843,0.068c0.246,0.184,0.362,0.49,0.305,0.791
		c-0.158,0.799,0.117,1.404,0.445,1.82c4.462-14.393,15.633-17.354,16.12-17.477c0.271-0.068,0.563,0.016,0.761,0.213
		c0.197,0.203,0.272,0.496,0.198,0.768c-0.184,0.668-0.255,1.225-0.261,1.682c5.79-11.783,23.116-17.426,23.894-17.674
		c0.34-0.107,0.728,0.033,0.917,0.342c0.191,0.316,0.145,0.717-0.112,0.979c-5.472,5.533-7.524,9.313-4.415,15.809
		c0.428,0.889,0.88,1.809,1.341,2.744c3.403,6.926,7.264,14.775,5.276,19.707c-0.164,0.406-0.621,0.596-1.038,0.441
		c-0.403-0.164-0.602-0.629-0.438-1.035c1.723-4.272-1.97-11.783-5.229-18.412c-0.463-0.939-0.918-1.865-1.343-2.756
		c-3.198-6.672-1.284-10.928,2.347-15.096c-5.68,2.365-17.282,8.211-20.566,17.537c-0.089,0.258-0.304,0.451-0.568,0.512
		c-0.268,0.066-0.542-0.016-0.737-0.205c-0.133-0.131-1.134-1.199-0.874-3.574c-3.05,1.238-10.912,5.486-14.078,17.09
		c-0.063,0.23-0.228,0.424-0.447,0.518c-0.218,0.1-0.469,0.094-0.685-0.021c-0.666-0.342-1.7-1.23-2.037-2.566
		c-2.543,2.078-8.514,8.627-8.168,24.082c0.005,0.264-0.122,0.512-0.334,0.666c-0.216,0.15-0.498,0.184-0.738,0.096
		c-0.068-0.025-1.35-0.523-2.104-2.127c-2.29,3.344-7.824,13.449-3.563,28.266c0.111,0.391-0.093,0.805-0.471,0.957
		c-0.1,0.039-0.99,0.369-1.89-0.043c-0.104-0.049-0.219-0.115-0.338-0.197c-1.29,3.391-4.012,13.904,3.523,29.869
		c0.108,0.232,0.1,0.502-0.022,0.723c-0.122,0.225-0.344,0.373-0.597,0.408c-0.085,0.008-1.562,0.186-2.854-0.633
		c-0.654,3.807-1.265,15.379,11.947,27.115c0.225,0.199,0.318,0.512,0.239,0.803c-0.081,0.293-0.315,0.512-0.613,0.572
		c-0.059,0.014-1.111,0.217-2.291,0.023c0.969,4.264,5.652,17.994,26.226,21.832c0.43,0.084,0.713,0.498,0.635,0.928
		C282.271,277.549,281.939,277.816,281.563,277.816"/>
	<path fill="#241A16" d="M320.653,282.715c-12.522,0-25.665-1.533-39.292-5.105c-0.427-0.113-0.68-0.547-0.567-0.973
		c0.109-0.422,0.551-0.672,0.972-0.566c94.396,24.757,165.406-49.4,166.118-50.152c0.297-0.316,0.801-0.336,1.12-0.035
		c0.32,0.301,0.337,0.803,0.037,1.123C448.429,227.656,395.705,282.715,320.653,282.715"/>
	<path fill="#241A16" d="M281.563,277.633c-0.229,0-0.462-0.098-0.617-0.291c-29.798-36.627-22.047-78.949-10.299-108.004
		c12.69-31.387,32.664-54.459,32.864-54.689c0.287-0.33,0.795-0.363,1.123-0.076c0.33,0.287,0.362,0.793,0.072,1.123
		c-0.788,0.908-78.655,91.654-22.528,160.643c0.278,0.338,0.225,0.842-0.113,1.115C281.918,277.576,281.738,277.633,281.563,277.633
		"/>
	<path fill="#241A16" d="M416.601,259.533c-2.474,0-5.077-0.688-7.65-2.508c-0.358-0.256-0.444-0.752-0.188-1.111
		c0.257-0.357,0.75-0.438,1.105-0.188c9.451,6.691,19.366-3.623,19.784-4.066c0.301-0.322,0.806-0.334,1.123-0.035
		c0.32,0.303,0.335,0.805,0.031,1.125C430.728,252.84,424.305,259.533,416.601,259.533"/>
	<path fill="#241A16" d="M396.498,264.191c-0.314,0-0.615-0.188-0.737-0.5c-9.731-24.182,18.447-40.414,18.736-40.576
		c0.372-0.217,0.862-0.08,1.081,0.305c0.215,0.381,0.08,0.865-0.302,1.084c-0.274,0.15-27.249,15.711-18.04,38.598
		c0.161,0.404-0.036,0.869-0.443,1.033C396.697,264.17,396.596,264.191,396.498,264.191"/>
	<path fill="#241A16" d="M384.452,280.221c-4.915,0-10.125-1.309-14.459-5.373c-0.321-0.301-0.339-0.805-0.039-1.125
		c0.304-0.32,0.807-0.332,1.125-0.035c11.281,10.565,29.244,0.947,29.423,0.85c0.381-0.211,0.866-0.072,1.08,0.314
		c0.209,0.387,0.069,0.869-0.314,1.078C401.145,276,393.274,280.221,384.452,280.221"/>
	<path fill="#241A16" d="M303.643,250.002c-5.448,0-11.56-1.063-18.263-3.795c-0.407-0.166-0.604-0.629-0.436-1.037
		c0.164-0.41,0.628-0.6,1.035-0.436c28.938,11.799,46.358-8.596,46.53-8.807c0.283-0.338,0.78-0.381,1.119-0.102
		c0.339,0.281,0.383,0.783,0.104,1.119C333.595,237.113,322.619,250.002,303.643,250.002"/>
	<path fill="#241A16" d="M334.487,216.895c-9.829,0-20.595-2.264-31.252-8.762c-0.375-0.23-0.492-0.719-0.265-1.094
		c0.229-0.379,0.717-0.492,1.094-0.266c33.977,20.73,69.24-2.807,69.592-3.047c0.356-0.242,0.855-0.152,1.105,0.211
		c0.246,0.361,0.153,0.855-0.207,1.105C374.302,205.213,356.821,216.895,334.487,216.895"/>
	<path fill="#241A16" d="M355.411,184.129c-7.758,0-16.031-1.939-24.206-7.213c-0.369-0.238-0.476-0.729-0.235-1.1
		c0.24-0.367,0.731-0.473,1.1-0.238c29.768,19.207,61.141-7.428,61.45-7.699c0.337-0.289,0.835-0.25,1.125,0.08
		c0.285,0.33,0.251,0.834-0.079,1.121C394.328,169.287,376.862,184.129,355.411,184.129"/>
	<path fill="#241A16" d="M379.736,156.334c-4.243,0-8.748-0.895-13.362-3.15c-0.396-0.193-0.561-0.666-0.366-1.063
		c0.194-0.395,0.677-0.555,1.063-0.367c20.958,10.254,39.735-9.189,39.922-9.387c0.307-0.322,0.809-0.334,1.124-0.031
		c0.319,0.301,0.333,0.805,0.031,1.123C407.992,143.623,395.739,156.334,379.736,156.334"/>
	<path fill="#241A16" d="M361.417,277.467c-0.279,0-0.552-0.148-0.697-0.414c-13.445-24.543,24.276-50.832,25.891-51.939
		c0.354-0.246,0.855-0.16,1.104,0.205c0.252,0.363,0.157,0.859-0.204,1.105c-0.382,0.264-38.15,26.58-25.396,49.867
		c0.212,0.383,0.071,0.869-0.313,1.08C361.679,277.438,361.545,277.467,361.417,277.467"/>
	<path fill="#241A16" d="M353.25,295.218c-7.099,0-18.174-2.026-26.998-12.782c-0.277-0.34-0.229-0.842,0.11-1.121
		c0.339-0.277,0.843-0.229,1.121,0.113c13.424,16.362,32.294,11.563,32.48,11.512c0.432-0.104,0.863,0.142,0.974,0.563
		c0.115,0.426-0.136,0.863-0.56,0.975C360.304,294.498,357.484,295.218,353.25,295.218"/>
	<path fill="#241A16" d="M317.539,294.367c-3.578,0-15.206-1.104-24.918-14.458c-0.26-0.355-0.181-0.854,0.174-1.109
		c0.353-0.26,0.852-0.182,1.108,0.176c10.826,14.879,24.434,13.784,24.566,13.769c0.432-0.048,0.823,0.276,0.864,0.715
		c0.042,0.436-0.273,0.826-0.714,0.867C318.536,294.335,318.156,294.367,317.539,294.367"/>
	<path fill="#241A16" d="M317.779,282.73c-0.4,0-0.746-0.299-0.79-0.709c-3.448-31.041,34.151-45.258,34.531-45.396
		c0.411-0.158,0.868,0.061,1.021,0.473c0.152,0.41-0.061,0.867-0.473,1.02c-0.368,0.135-36.81,13.93-33.497,43.732
		c0.048,0.434-0.267,0.826-0.705,0.875C317.838,282.729,317.809,282.73,317.779,282.73"/>
	<path fill="#241A16" d="M293.084,226.367c-0.313,0-0.612-0.191-0.736-0.502c-5.27-13.332,10.859-37.322,11.552-38.336
		c0.245-0.363,0.737-0.465,1.104-0.213c0.363,0.246,0.457,0.742,0.21,1.104c-0.165,0.244-16.35,24.309-11.391,36.859
		c0.163,0.408-0.038,0.871-0.446,1.029C293.282,226.352,293.183,226.367,293.084,226.367"/>
	<path fill="#241A16" d="M318.791,189.383c-0.354,0-0.675-0.236-0.769-0.588c-5.494-20.598,17.606-38.477,17.842-38.656
		c0.353-0.262,0.848-0.197,1.118,0.152c0.264,0.35,0.197,0.85-0.152,1.115c-0.227,0.17-22.49,17.414-17.271,36.973
		c0.109,0.428-0.143,0.865-0.563,0.977C318.926,189.373,318.86,189.383,318.791,189.383"/>
	<path fill="#241A16" d="M348.205,164.17c-0.415,0-0.764-0.32-0.795-0.738c-1.373-19.123,23.189-30.537,24.236-31.014
		c0.39-0.18,0.867-0.01,1.054,0.395c0.181,0.398,0.006,0.869-0.396,1.051c-0.246,0.111-24.603,11.438-23.308,29.453
		c0.029,0.439-0.298,0.822-0.737,0.852C348.242,164.17,348.222,164.17,348.205,164.17"/>
	<path fill="#241A16" d="M379.164,145.963c-0.427,0-0.778-0.34-0.797-0.773c-0.271-8.783,10.271-14.422,10.72-14.656
		c0.393-0.209,0.87-0.055,1.076,0.334c0.205,0.389,0.056,0.869-0.333,1.072c-0.102,0.053-10.115,5.412-9.87,13.203
		c0.014,0.438-0.332,0.805-0.771,0.82H379.164z"/>
	<path fill="#241A16" d="M262.175,226.137c-0.358,0-0.727-0.008-1.095-0.021c-0.436-0.02-0.781-0.389-0.76-0.828
		c0.015-0.438,0.337-0.766,0.825-0.762c20.29,0.889,28.605-23.396,28.691-23.639c0.136-0.42,0.587-0.647,1.002-0.504
		c0.418,0.137,0.644,0.586,0.504,1.004C291.263,201.637,282.886,226.137,262.175,226.137"/>
	<path fill="#241A16" d="M268.935,256.367c-0.311,0-0.604-0.184-0.732-0.486c-0.171-0.406,0.02-0.871,0.423-1.041
		c8.591-3.623,12.196-16.816,12.23-16.947c0.115-0.428,0.553-0.674,0.975-0.566c0.427,0.113,0.677,0.553,0.566,0.975
		c-0.156,0.574-3.843,14.078-13.154,18.002C269.142,256.346,269.036,256.367,268.935,256.367"/>
	<path fill="#241A16" d="M264.363,192.035c-0.438,0-0.789-0.354-0.793-0.791c-0.003-0.438,0.349-0.797,0.787-0.801
		c20.141-0.164,30.976-25.221,31.083-25.473c0.167-0.406,0.641-0.598,1.042-0.422c0.404,0.168,0.592,0.637,0.422,1.041
		c-0.109,0.262-11.344,26.273-32.535,26.445L264.363,192.035L264.363,192.035z"/>
	<path fill="#241A16" d="M275.854,160.494c-0.416,0-0.77-0.326-0.793-0.748c-0.027-0.441,0.31-0.816,0.746-0.842
		c15.483-0.914,21.469-19.922,21.528-20.115c0.128-0.42,0.575-0.662,0.991-0.531c0.422,0.131,0.656,0.574,0.528,0.994
		c-0.061,0.201-6.359,20.258-22.954,21.242C275.886,160.494,275.869,160.494,275.854,160.494"/>
	<path fill="#241A16" d="M264.688,246.182c-0.128,0-0.256-0.031-0.375-0.096c-12.133-6.49-13.416-15.801-13.465-16.191
		c-0.057-0.438,0.255-0.832,0.69-0.887c0.417-0.057,0.831,0.256,0.886,0.688c0.015,0.088,1.272,8.91,12.638,14.988
		c0.389,0.207,0.533,0.688,0.329,1.076C265.249,246.027,264.972,246.182,264.688,246.182"/>
	<path fill="#241A16" d="M261.719,206.482c-0.128,0-0.259-0.031-0.375-0.096c-12.331-6.598-8.617-20.699-8.579-20.842
		c0.112-0.422,0.551-0.678,0.977-0.559c0.424,0.117,0.673,0.555,0.558,0.979c-0.145,0.529-3.4,13.027,7.794,19.021
		c0.39,0.207,0.534,0.688,0.326,1.074C262.277,206.326,262.001,206.482,261.719,206.482"/>
	<path fill="#241A16" d="M270.511,172.631c-0.13,0-0.258-0.031-0.374-0.096c-10.434-5.574-7.536-17.375-7.505-17.494
		c0.108-0.424,0.535-0.684,0.967-0.572c0.427,0.107,0.682,0.541,0.575,0.967c-0.111,0.436-2.606,10.719,6.71,15.699
		c0.389,0.205,0.532,0.688,0.326,1.074C271.069,172.479,270.794,172.631,270.511,172.631"/>
	<path fill="#241A16" d="M281.563,277.633c-0.408,0-0.755-0.309-0.792-0.719c-0.022-0.256-2.167-25.676,14.287-56.752
		c15.158-28.615,49.646-68.066,127.884-93.518c0.417-0.135,0.865,0.092,1.003,0.51c0.136,0.418-0.095,0.865-0.511,1.002
		c-77.668,25.262-111.891,64.334-126.918,92.66c-16.275,30.67-14.187,55.701-14.162,55.951c0.041,0.436-0.281,0.824-0.718,0.863
		C281.61,277.633,281.586,277.633,281.563,277.633"/>
	<path fill="#241A16" d="M274.574,292.316c-2.785,0-5.056-2.264-5.056-5.047c0-2.787,2.271-5.057,5.056-5.057
		c2.783,0,5.05,2.27,5.05,5.057C279.624,290.053,277.357,292.316,274.574,292.316 M274.574,283.805
		c-1.909,0-3.464,1.553-3.464,3.465c0,1.905,1.555,3.457,3.464,3.457c1.906,0,3.461-1.552,3.461-3.457
		C278.035,285.357,276.48,283.805,274.574,283.805"/>
	<path fill="#241A16" d="M274.574,300.826c-7.483,0-13.567-6.082-13.567-13.557c0-3.629,1.412-7.031,3.974-9.59
		c2.169-2.166,5.03-3.545,8.058-3.885c0.435-0.021,0.828,0.268,0.875,0.705c0.051,0.436-0.266,0.828-0.701,0.879
		c-2.668,0.295-5.191,1.512-7.107,3.426c-2.259,2.258-3.506,5.262-3.506,8.465c0,6.598,5.372,11.965,11.978,11.965
		c6.398,0,11.65-5,11.957-11.387c0.021-0.439,0.417-0.83,0.831-0.756c0.439,0.02,0.778,0.393,0.757,0.832
		C287.77,295.156,281.822,300.826,274.574,300.826"/>
</g>
</svg>
